<?xml version="1.0" encoding="utf-8"?>
<!-- Generator: Adobe Illustrator 21.0.0, SVG Export Plug-In . SVG Version: 6.00 Build 0)  -->
<svg version="1.1" id="Слой_1" xmlns="http://www.w3.org/2000/svg" xmlns:xlink="http://www.w3.org/1999/xlink" x="50px" y="50px"
	 viewBox="0 0 87.8 80.3" style="enable-background:new 0 0 87.8 80.3;" xml:space="preserve">
    
    <style type="text/css">
	.st0{fill:rgba(255, 255, 255, 0.21);}
</style>
    
<g>
	<path class="st0" d="M84.2,22.2L84,22c-0.7-1.1-1.4-1.1-2.1-0.6c-0.2,0.1-0.3,0.4-0.4,0.7c-0.1,0.4,0,0.9,0.2,1.2
		c0.1,0.2,0.3,0.4,0.5,0.7c1.2,1.6,2.7,3.8,3.1,6.3c0.6,4.7-1.9,10.2-6,13.1l-1.2,0.8V1.4c0-0.8-0.6-1.4-1.4-1.4h-0.1H26.1
		c-0.8,0-1.4,0.6-1.4,1.4v7.5c0,0.8,0.6,1.4,1.4,1.4s1.4-0.6,1.4-1.4V2.8h47.8v42h-7.7l3.9-3.9c0.3-0.3,0.4-0.6,0.4-1
		s-0.1-0.7-0.4-1l-0.2-0.1c-0.5-0.5-1.4-0.5-2,0l-6.6,6.6c-0.3,0.3-0.4,0.6-0.4,1s0.1,0.7,0.4,1l6.6,6.6c0.5,0.5,1.4,0.5,2,0
		l0.2-0.2c0.5-0.5,0.5-1.4,0-2l-4.3-4.3l2.1,0.1h6.1v15.6h-5.7c-0.8,0-1.4,0.6-1.4,1.4s0.6,1.4,1.4,1.4h7.2c0.7,0,1.3-0.6,1.3-1.4
		V47.1l0.4-0.2c2.3-1.1,4.1-3,4.7-3.7l0.1-0.2c3.2-3.4,4.6-7.4,4.4-12.7C87.7,28.9,87,26.4,84.2,22.2z"/>
	<path class="st0" d="M37.9,27.7h15.8c0.8,0,1.4-0.6,1.4-1.4s-0.6-1.4-1.4-1.4H37.9c-0.8,0-1.4,0.6-1.4,1.4S37.2,27.7,37.9,27.7z"/>
	<path class="st0" d="M62.2,53.1c-0.8,0-1.4,0.6-1.4,1.4v23.2H13V30.2h5.7l1.9-0.1l-1.3,1.3l-2.9,2.9c-0.3,0.3-0.4,0.6-0.4,1
		s0.1,0.7,0.4,1l0.2,0.2c0.5,0.5,1.4,0.5,2,0l6.6-6.6c0.3-0.3,0.4-0.6,0.4-1s-0.1-0.7-0.4-1l-6.6-6.6c-0.5-0.5-1.4-0.5-2,0l-0.2,0.2
		c-0.5,0.5-0.5,1.4,0,2l3.9,3.9h-7.4V17.2h47.8v20.3c0,0.8,0.6,1.4,1.4,1.4s1.4-0.6,1.4-1.4V15.8c0-0.8-0.6-1.4-1.4-1.4H11.5
		c-0.8,0-1.4,0.6-1.4,1.4v12L9.6,28c-2.5,1.1-4.4,3.1-5.1,3.9L4.4,32C1.2,35.4-0.2,39.4,0,44.7c0.1,1.4,0.7,3.9,3.5,8.1L3.7,53
		c0.7,1.1,1.4,1.1,2.1,0.6c0.2-0.1,0.3-0.4,0.4-0.7c0.1-0.4,0-0.9-0.2-1.2c-0.1-0.2-0.3-0.4-0.5-0.7c-1.2-1.6-2.7-3.8-3.1-6.3
		c-0.7-4.8,2.1-10.6,6.4-13.4l1.2-0.8v48.4c0,0.8,0.6,1.4,1.4,1.4h50.7c0.7,0,1.3-0.6,1.3-1.4V54.3C63.6,53.8,63,53.1,62.2,53.1z"/>
	<path class="st0" d="M37.9,35.7h15.8c0.8,0,1.4-0.6,1.4-1.4s-0.6-1.4-1.4-1.4H37.9c-0.8,0-1.4,0.6-1.4,1.4S37.1,35.7,37.9,35.7z"/>
	<path class="st0" d="M53.9,41.2H19.6c-0.8,0-1.4,0.6-1.4,1.4s0.6,1.4,1.4,1.4h34.3c0.8,0,1.4-0.6,1.4-1.4S54.6,41.2,53.9,41.2z"/>
	<path class="st0" d="M53.8,49.3H19.5c-0.8,0-1.4,0.6-1.4,1.4s0.6,1.4,1.4,1.4h34.3c0.8,0,1.4-0.6,1.4-1.4S54.6,49.3,53.8,49.3z"/>
	<path class="st0" d="M53.8,57.3H19.5c-0.8,0-1.4,0.6-1.4,1.4s0.6,1.4,1.4,1.4h34.3c0.8,0,1.4-0.6,1.4-1.4S54.5,57.3,53.8,57.3z"/>
	<path class="st0" d="M53.7,65.4H19.4c-0.8,0-1.4,0.6-1.4,1.4s0.6,1.4,1.4,1.4h34.3c0.8,0,1.4-0.6,1.4-1.4S54.5,65.4,53.7,65.4z"/>
</g>
</svg>
