<?xml version="1.0" encoding="utf-8"?>
<!-- Generator: Adobe Illustrator 21.0.0, SVG Export Plug-In . SVG Version: 6.00 Build 0)  -->
<svg version="1.1" id="Слой_1" xmlns="http://www.w3.org/2000/svg" xmlns:xlink="http://www.w3.org/1999/xlink" x="0px" y="0px"
	 viewBox="0 0 64.6 68.6" style="enable-background:new 0 0 64.6 68.6;" xml:space="preserve">
<style type="text/css">
	.st0{fill:rgba(255, 255, 255, 0.21);}
</style>
<g>
	<path class="st0" d="M9.5,15.7h15.8c0.8,0,1.4-0.6,1.4-1.4s-0.6-1.4-1.4-1.4H9.5c-0.8,0-1.4,0.6-1.4,1.4S8.7,15.7,9.5,15.7z"/>
	<path class="st0" d="M9.4,23.8h15.8c0.8,0,1.4-0.6,1.4-1.4S26,21,25.2,21H9.4C8.6,21,8,21.6,8,22.4S8.6,23.8,9.4,23.8z"/>
	<path class="st0" d="M8,30.7c0,0.8,0.6,1.4,1.4,1.4h34.3c0.8,0,1.4-0.6,1.4-1.4s-0.6-1.4-1.4-1.4H9.4C8.6,29.3,8,29.9,8,30.7z"/>
	<path class="st0" d="M43.6,37.4H9.3c-0.8,0-1.4,0.6-1.4,1.4s0.6,1.4,1.4,1.4h34.3c0.8,0,1.4-0.6,1.4-1.4S44.4,37.4,43.6,37.4z"/>
	<path class="st0" d="M43.6,45.4H9.3c-0.8,0-1.4,0.6-1.4,1.4s0.6,1.4,1.4,1.4h34.3c0.8,0,1.4-0.6,1.4-1.4S44.3,45.4,43.6,45.4z"/>
	<path class="st0" d="M43.5,53.5H9.2c-0.8,0-1.4,0.6-1.4,1.4s0.6,1.4,1.4,1.4h34.3c0.8,0,1.4-0.6,1.4-1.4S44.3,53.5,43.5,53.5z"/>
	<path class="st0" d="M52,29.3c-0.8,0-1.4,0.6-1.4,1.4v35.1H2.8V5.3h22.5c0.8,0,1.4-0.6,1.4-1.4s-0.6-1.4-1.4-1.4H1.4
		C0.6,2.5,0,3.1,0,3.9v63.3c0,0.8,0.6,1.4,1.4,1.4h50.5c0.8,0,1.4-0.6,1.4-1.4V30.7C53.3,29.9,52.7,29.3,52,29.3z"/>
	<path class="st0" d="M33.3,24.4c0.1,0.2,0.1,0.2,0.3,0.2c0.8,0,1.6,0,2.3,0h0.8c-0.1-0.2-0.2-0.4-0.2-0.5c-0.2-0.5-0.5-1.1-0.7-1.7
		c-0.8-2.5-0.9-5.2-0.4-8.1c0.7-3.8,2.5-6.9,5.3-9.1c3.7-2.9,8-3.7,12.8-2.5c3.3,0.8,5.7,2.8,7.1,5.8c0.6,1.3,1,2.8,1.1,4.5
		c0.1,2.3-0.2,4.2-0.9,5.9c-0.4,0.9-0.9,1.7-1.5,2.3c-0.6,0.6-1.3,0.9-2,1.1c-0.6,0.1-1.2,0-1.6-0.3s-0.7-0.7-0.8-1.3
		c-0.1-0.6-0.1-1.3,0-1.9c0.2-1.7,0.5-3.4,0.7-5l0.7-4.7c-0.2-0.1-0.4-0.2-0.6-0.2c-2.7-0.8-5.1-1-7.5-0.5c-3.6,0.7-5.6,2.8-6.6,4.5
		c-1.5,2.4-2.1,5.5-1.5,8.2c0.7,2.9,2.7,4,5.9,3.9c1.7-0.1,3.2-0.9,4.3-2c0.4-0.4,1-1.1,1-1.1l0.3-0.4l0.1,0.5
		c0.1,0.2,0.1,0.4,0.2,0.5c0.4,1.3,1.3,2.1,2.5,2.3c1.3,0.2,2.6,0.1,4-0.3c2.2-0.7,3.8-2.3,4.9-4.5c1.2-2.5,1.6-5.2,1.2-8.1
		c-0.7-5.2-3.6-8.8-8.4-10.8c-2.9-1.2-6.1-1.4-9.6-0.8c-4.8,0.9-8.6,3.4-11.3,7.4c-2.4,3.5-3.4,7.5-3.1,12
		C32.3,21.2,32.7,22.8,33.3,24.4z M51.6,13.1c-0.1,0.7-0.2,1.4-0.3,2v0.3c-0.1,0.6-0.2,1.2-0.3,1.9c-0.2,1-0.7,1.9-1.3,2.7
		c-0.5,0.6-1,1-1.6,1.2c-0.3,0.1-0.6,0.2-0.9,0.2c-0.4,0-0.7-0.1-1-0.2c-0.6-0.3-1-0.8-1.3-1.5c-0.3-0.8-0.3-1.6-0.2-2.8
		c0.2-1.6,0.8-2.9,1.8-4c1.2-1.2,2.6-1.8,4.2-1.6c0.2,0,0.3,0.1,0.5,0.1c0.1,0,0.1,0,0.2,0.1l0.4,0.1L51.6,13.1z"/>
</g>
</svg>
