<?xml version="1.0" encoding="utf-8"?>
<!-- Generator: Adobe Illustrator 21.0.0, SVG Export Plug-In . SVG Version: 6.00 Build 0)  -->
<svg version="1.1" id="Слой_1" xmlns="http://www.w3.org/2000/svg" xmlns:xlink="http://www.w3.org/1999/xlink" x="0px" y="0px"
	 viewBox="0 0 73.8 75.3" style="enable-background:new 0 0 73.8 75.3;" xml:space="preserve">
<style type="text/css">
	.st0{fill:rgba(255, 255, 255, 0.21);}
</style>
<path class="st0" d="M59.8,58.8L47.1,46.1c-0.6-0.6-1.7-0.6-2.3,0c-0.3,0.3-0.5,0.7-0.5,1.2c0,0.4,0.2,0.8,0.5,1.2l12.7,12.7
	c0.6,0.6,1.7,0.6,2.3,0c0.3-0.3,0.5-0.7,0.5-1.2S60.1,59.1,59.8,58.8z"/>
<path class="st0" d="M73.4,70.5l-7.6-7.6c-0.3-0.3-0.7-0.5-1.2-0.5c-0.4,0-0.8,0.2-1.2,0.5l-1.9,1.9C61.2,65.1,61,65.5,61,66
	c0,0.4,0.2,0.8,0.5,1.2l7.6,7.6c0.6,0.6,1.7,0.6,2.3,0l1.9-1.9c0.3-0.3,0.5-0.7,0.5-1.2S73.7,70.8,73.4,70.5z"/>
<path class="st0" d="M25,0C11.2,0,0,11.2,0,25s11.2,25,25,25s25-11.2,25-25S38.8,0,25,0z M25,46.9C12.9,46.9,3.1,37.1,3.1,25
	S12.9,3.1,25,3.1S46.9,12.9,46.9,25S37,46.9,25,46.9z"/>
<path class="st0" d="M32.5,11.1c-2.9-1.2-5.9-1.4-9.3-0.7c-4.7,0.9-8.4,3.3-11,7.2c-2.3,3.4-3.3,7.3-3,11.7c0.1,1.5,0.5,3.1,1.1,4.6
	c0.1,0.2,0.1,0.2,0.3,0.2c0.8,0,1.5,0,2.3,0h0.7c-0.1-0.2-0.1-0.3-0.2-0.5c-0.2-0.5-0.5-1.1-0.6-1.6c-0.8-2.4-0.9-5.1-0.4-7.9
	c0.7-3.8,2.4-6.7,5.2-8.9c3.6-2.8,7.9-3.6,12.5-2.4c3.2,0.8,5.6,2.7,6.9,5.7c0.6,1.3,1,2.8,1,4.4c0.1,2.2-0.2,4.1-0.9,5.8
	c-0.4,0.9-0.9,1.6-1.5,2.2s-1.3,0.9-2,1c-0.6,0.1-1.1,0-1.5-0.3s-0.6-0.7-0.7-1.3c-0.1-0.6-0.1-1.3,0-1.9c0.2-1.7,0.5-3.3,0.7-5
	l0.7-4.5c-0.2-0.1-0.4-0.2-0.5-0.2c-2.6-0.8-5-1-7.3-0.5c-3.5,0.7-5.4,2.7-6.4,4.3c-1.5,2.3-2,5.3-1.4,8c0.6,2.8,2.9,4.2,5.8,3.7
	c1.6-0.3,2.9-1.1,4-2.6l0.6-0.8l0.8,0.1l0.2,0.6c0,0.2,0.1,0.3,0.1,0.5c0.4,1.3,1.2,2,2.5,2.2c1.2,0.2,2.5,0.1,3.9-0.3
	c2.1-0.7,3.7-2.2,4.8-4.4c1.2-2.4,1.6-5.1,1.2-7.9C40,16.6,37.3,13.1,32.5,11.1z M28,22.9c-0.1,0.7-0.2,1.3-0.3,2v0.3
	c-0.1,0.6-0.2,1.2-0.3,1.8c-0.2,1-0.6,1.9-1.3,2.7c-0.5,0.6-1,1-1.6,1.2c-0.3,0.1-0.6,0.2-0.9,0.2c-0.4,0-0.7-0.1-1-0.2
	c-0.6-0.3-1-0.8-1.2-1.4c-0.3-0.8-0.3-1.6-0.2-2.7c0.2-1.6,0.8-2.9,1.8-3.9c1.1-1.2,2.5-1.7,4.1-1.5c0.2,0,0.3,0.1,0.5,0.1l0.6,0.2
	L28,22.9z"/>
</svg>
