<?xml version="1.0" encoding="utf-8"?>
<!-- Generator: Adobe Illustrator 21.0.0, SVG Export Plug-In . SVG Version: 6.00 Build 0)  -->
<svg version="1.1" id="Слой_1" xmlns="http://www.w3.org/2000/svg" xmlns:xlink="http://www.w3.org/1999/xlink" x="0px" y="0px"
	 viewBox="0 0 82 81.7" style="enable-background:new 0 0 82 81.7;" xml:space="preserve">
<style type="text/css">
	.st0{fill:rgba(255, 255, 255, 0.21);}
</style>
<path class="st0" d="M61.6,17c0.2-0.3,0.2-0.7,0.1-1c-0.2-0.7-1-1.1-1.7-0.9c-4.1,1.3-11.6,5.1-12.5,5.5c-0.3,0.2-0.6,0.4-0.7,0.8
	c-0.1,0.3-0.1,0.7,0.1,1c0.3,0.7,1.2,0.9,1.9,0.6c1.4-0.7,8.4-4.2,12.1-5.4C61.2,17.5,61.5,17.3,61.6,17z"/>
<path class="st0" d="M80.9,20.4c-0.8,0-1.4,0.6-1.4,1.4v53.3c0,2.3-1.8,4.1-4.1,4.1H42.6v-3.1l0.7-0.2c2.4-0.8,7-2.1,11.6-2.1
	c11.7,0,19.7,2.6,20.1,2.7s0.9,0.1,1.2-0.2c0.4-0.3,0.6-0.7,0.6-1.1V15.1c0-0.6-0.4-1.2-1.1-1.3c0,0-1.1-0.2-2.9-0.6
	c-0.7-0.1-1.5,0.4-1.6,1.1s0.4,1.5,1.1,1.6l1.7,0.3v57.2l-1.2-0.3c-3.8-0.9-10-2-17.9-2c-5.6,0-11.1,1.7-13.2,2.5l-0.4,0.1l-0.4-0.2
	c-2.2-0.9-6.6-2.5-12-2.5c-8.1,0-15,1.1-19.3,2.1l-1.2,0.3V16.1l0.8-0.2c3.6-0.8,10.9-2.2,19.7-2.2c4.5,0,8.4,1.2,10.3,2l0.6,0.2
	v53.8c0,0.5,0.3,0.9,0.7,1.2c0.4,0.2,1,0.2,1.4,0c0.6-0.3,13.9-8.2,25.7-12.2c0.6-0.2,0.9-0.7,0.9-1.3v-56c0-0.4-0.2-0.9-0.6-1.1
	C67.5,0,67.1,0,66.6,0.1C55.9,4.1,45,10.9,44.5,11.2c-0.6,0.4-0.8,1.2-0.4,1.9c0.2,0.3,0.5,0.5,0.9,0.6s0.7,0,1-0.2
	C46.1,13.4,54.9,8,64.4,4l1.4-0.6v53l-0.7,0.2C56.9,59.5,48.4,64,44,66.4l-1.5,0.8V14.9c0-0.5-0.3-1-0.8-1.2
	c-0.6-0.3-6-2.9-12.9-2.9c-12.3,0-21.8,2.7-22.2,2.8c-0.6,0.2-1,0.7-1,1.3V75c0,0.4,0.2,0.8,0.5,1.1c0.3,0.3,0.8,0.3,1.2,0.2
	c0.4-0.1,9.8-2.7,21.5-2.7c4.5,0,8.4,1.3,10.3,2l0.6,0.2V79H6.9c-2.3,0-4.1-1.8-4.1-4.1V21.6c0-0.8-0.6-1.4-1.4-1.4S0,20.8,0,21.6
	v53.3c0,3.8,3.1,6.8,6.8,6.8h68.3c3.8,0,6.8-3.1,6.8-6.8V21.6C82.3,21.1,81.7,20.4,80.9,20.4z"/>
<path class="st0" d="M62.5,31c-0.2-0.7-1-1.1-1.7-0.9c-4.2,1.3-12.4,5.5-12.5,5.5c-0.7,0.3-0.9,1.2-0.6,1.8l0,0
	c0.3,0.6,1.2,0.9,1.8,0.6c0.8-0.4,8.3-4.2,12.1-5.4c0.3-0.1,0.6-0.3,0.8-0.7C62.5,31.7,62.6,31.3,62.5,31L62.5,31z"/>
<path class="st0" d="M62.5,22.8c-0.2-0.6-0.7-1-1.3-1c-0.1,0-0.3,0-0.4,0.1c-4.2,1.3-12.4,5.5-12.5,5.5c-0.7,0.3-0.9,1.2-0.6,1.8
	c0.3,0.6,1.2,0.9,1.8,0.6c0.8-0.4,8.3-4.2,12.1-5.4c0.3-0.1,0.6-0.3,0.8-0.7C62.5,23.5,62.6,23.1,62.5,22.8L62.5,22.8z"/>
<path class="st0" d="M62.5,39.2c-0.2-0.6-0.7-1-1.3-1c-0.1,0-0.3,0-0.4,0.1c-4.1,1.3-11.6,5.1-12.5,5.5c-0.7,0.3-0.9,1.2-0.6,1.8
	c0.3,0.7,1.2,0.9,1.9,0.6C51,45.5,58,42,61.7,40.8c0.3-0.1,0.6-0.3,0.8-0.7C62.5,39.9,62.6,39.5,62.5,39.2L62.5,39.2z"/>
<path class="st0" d="M16.4,27.2c0.1,0,9.3-2.5,17.1-0.6c0.4,0.1,0.7,0,1-0.2s0.5-0.5,0.6-0.8c0.1-0.4,0-0.7-0.2-1S34.4,24.1,34,24
	c-2.4-0.6-4.8-0.8-7.1-0.8c-6,0-11,1.3-11.3,1.4c-0.7,0.2-1.2,0.9-1,1.7C14.9,27,15.7,27.4,16.4,27.2z"/>
<path class="st0" d="M34.1,32.1c-2.3-0.6-4.8-0.8-7.1-0.8c-6,0-11,1.3-11.3,1.4c-0.7,0.2-1.2,0.9-1,1.7c0.2,0.7,0.9,1.2,1.7,1
	c0.1,0,9.3-2.4,17.1-0.6c0.4,0.1,0.7,0,1-0.2s0.5-0.5,0.6-0.9s0-0.7-0.2-1C34.8,32.4,34.5,32.2,34.1,32.1z"/>
<path class="st0" d="M60.7,46.5c-4.1,1.3-11.6,5.1-12.5,5.5c-0.7,0.3-0.9,1.2-0.6,1.8c0.3,0.6,1.2,0.9,1.8,0.6
	c0.8-0.4,8.3-4.2,12.1-5.4c0.3-0.1,0.6-0.3,0.8-0.7c0.2-0.3,0.2-0.7,0.1-1C62.2,46.6,61.5,46.2,60.7,46.5z"/>
<path class="st0" d="M35,40.9c-0.2-0.3-0.5-0.5-0.9-0.6c-2.4-0.6-4.9-0.8-7.2-0.8c-6,0-11,1.3-11.2,1.4c-0.7,0.2-1.2,0.9-1,1.7
	c0.2,0.7,0.9,1.2,1.7,1c0.1,0,9.3-2.4,17.1-0.6c0.4,0.1,0.7,0,1-0.2s0.5-0.5,0.6-0.8C35.2,41.6,35.2,41.3,35,40.9L35,40.9z"/>
<path class="st0" d="M34.1,56.7c-2.4-0.6-4.8-0.8-7.1-0.8c-6,0-11,1.3-11.3,1.4c-0.7,0.2-1.2,0.9-1,1.7c0.2,0.7,0.9,1.2,1.7,1
	c0.1,0,9.4-2.4,17.1-0.6c0.7,0.2,1.5-0.3,1.6-1c0.1-0.4,0-0.7-0.2-1C34.8,57,34.5,56.8,34.1,56.7z"/>
<path class="st0" d="M16.4,51.8c0.1,0,9.4-2.4,17.1-0.6c0.4,0.1,0.7,0,1-0.2s0.5-0.5,0.6-0.8c0.1-0.4,0-0.7-0.2-1l0,0
	c-0.2-0.3-0.5-0.5-0.9-0.6c-2.4-0.6-4.9-0.8-7.2-0.8c-6,0-11,1.3-11.2,1.4c-0.4,0.1-0.7,0.3-0.8,0.6c-0.2,0.3-0.2,0.7-0.1,1
	C14.9,51.6,15.6,52,16.4,51.8z"/>
</svg>
