<svg id="SvgjsSvg1000" xmlns="http://www.w3.org/2000/svg" version="1.1" xmlns:xlink="http://www.w3.org/1999/xlink" xmlns:svgjs="http://svgjs.com/svgjs" width="158" height="162" viewBox="0 0 158 162"><title>User</title><desc>Created with Avocode.</desc><defs id="SvgjsDefs1001"></defs><path id="SvgjsPath1007" d="M653.886 2554.41C648.428 2554.41 649.2679999999999 2556.8599999999997 646.329 2557.2799999999997C643.39 2557.7 646.924 2556.1 638.107 2557.7799999999997C629.2909999999999 2559.4599999999996 626.177 2570.83 625.757 2575.04C625.338 2579.25 625.233 2591.09 625.512 2597.41C626.352 2601.19 623.4129999999999 2601.19 623.4129999999999 2601.19C618.1299999999999 2600.85 620.5059999999999 2617.36 620.5059999999999 2617.36C621.2649999999999 2621.4300000000003 620.2319999999999 2623.46 628.0549999999998 2626.61C631.7809999999998 2637.26 641.5149999999999 2642.8900000000003 641.5149999999999 2642.8900000000003C641.5149999999999 2642.8900000000003 641.5639999999999 2649.4600000000005 641.7109999999999 2654.32C640.9149999999998 2653.92 644.4289999999999 2666.7400000000002 620.1299999999999 2670.34C595.8299999999999 2673.94 591.1769999999999 2681.83 586.5959999999999 2686.2200000000003C582.0149999999999 2690.6200000000003 582.1929999999999 2711.92 582.1929999999999 2711.92L739.0149999999999 2712.01C739.0149999999999 2712.01 737.8509999999999 2690.6200000000003 733.2689999999999 2686.2200000000003C728.6879999999999 2681.8300000000004 723.6979999999999 2673.94 699.3989999999999 2670.34C675.7749999999999 2666.9100000000003 679.6599999999999 2654.27 679.4919999999998 2653.51C679.5359999999998 2651.6000000000004 679.7919999999998 2643.4700000000003 679.7919999999998 2643.4700000000003C679.7919999999998 2643.4700000000003 688.0409999999998 2636.94 691.7669999999998 2626.2900000000004C697.6299999999999 2622.5800000000004 699.8639999999998 2622.0600000000004 700.8329999999999 2617.7900000000004C700.8329999999999 2617.7900000000004 702.5579999999999 2601.1100000000006 697.0219999999998 2601.1900000000005C697.0219999999998 2601.1900000000005 694.3969999999998 2602.0400000000004 695.2379999999998 2598.2500000000005C696.0769999999999 2594.4600000000005 695.7969999999998 2582.6200000000003 695.3769999999998 2578.4100000000003C694.9569999999999 2574.2000000000003 695.5899999999998 2562.1700000000005 686.7739999999999 2560.4800000000005C680.7559999999999 2559.3600000000006 679.9709999999999 2560.4700000000003 677.0319999999999 2560.0500000000006C674.0939999999999 2559.6300000000006 670.5949999999999 2551.9900000000007 665.137 2551.9900000000007Z " fill="#df5c64" fill-opacity="1" transform="matrix(1,0,0,1,-582,-2551)"></path></svg>