<?xml version="1.0" encoding="utf-8"?>
<!-- Generator: Adobe Illustrator 21.0.0, SVG Export Plug-In . SVG Version: 6.00 Build 0)  -->
<svg version="1.1" id="Слой_1" xmlns="http://www.w3.org/2000/svg" xmlns:xlink="http://www.w3.org/1999/xlink" x="0px" y="0px"
	 viewBox="0 0 84.6 79.7" style="enable-background:new 0 0 84.6 79.7;" xml:space="preserve">
<style type="text/css">
	.st0{fill:#fff;}
</style>
<g>
	<path class="st0" d="M82.9,27H63.7c-0.3,0-0.6,0-0.8,0.1c-0.1,0-0.2,0.1-0.3,0.1c-0.1,0.1-0.2,0.1-0.2,0.2
		c-0.1,0.1-0.2,0.2-0.2,0.2s0,0.1-0.1,0.1c0,0.1-0.1,0.1-0.1,0.1c0,0.1-0.1,0.1-0.1,0.2l-4,14.7H1.6c-0.9,0-1.6,0.7-1.6,1.6
		s0.7,1.6,1.6,1.6h55.6l-1.4,5.2H5.2c-0.9,0-1.6,0.7-1.6,1.6s0.7,1.6,1.6,1.6h49.7l-1.2,4.6H9.4c-0.9,0-1.6,0.7-1.6,1.6
		s0.7,1.6,1.6,1.6h43.5l-1.3,4.7H13c-0.9,0-1.6,0.7-1.6,1.6S12.1,70,13,70h39.9H53h0.1c0.7-0.1,1.3-0.7,1.4-1.5L64.9,30H83
		c0.9,0,1.6-0.7,1.6-1.6S83.8,27,82.9,27z"/>
	<path class="st0" d="M19.5,70.3c-2.6,0-4.7,2.1-4.7,4.7s2.1,4.7,4.7,4.7s4.7-2.1,4.7-4.7S22.1,70.3,19.5,70.3z M19.5,76.8
		c-1,0-1.8-0.8-1.8-1.8s0.8-1.8,1.8-1.8s1.8,0.8,1.8,1.8S20.5,76.8,19.5,76.8z"/>
	<path class="st0" d="M45.9,70.3c-2.6,0-4.7,2.1-4.7,4.7s2.1,4.7,4.7,4.7s4.7-2.1,4.7-4.7S48.5,70.3,45.9,70.3z M45.9,76.8
		c-1,0-1.8-0.8-1.8-1.8s0.8-1.8,1.8-1.8s1.8,0.8,1.8,1.8S46.9,76.8,45.9,76.8z"/>
	<path class="st0" d="M6.6,37.5c0.2,0.4,0.2,0.4,0.4,0.4c1.3,0,2.5,0,3.6,0h1.2c-0.1-0.3-0.2-0.5-0.4-0.8c-0.4-0.8-0.7-1.7-1-2.6
		c-1.2-3.8-1.4-8-0.6-12.4c1.1-5.9,3.8-10.6,8.2-13.9c5.7-4.4,12.3-5.7,19.6-3.8c5,1.3,8.7,4.3,10.9,8.9c1,2,1.5,4.3,1.6,6.8
		c0.2,3.4-0.3,6.4-1.4,9.1c-0.6,1.4-1.3,2.6-2.3,3.5c-0.9,0.9-2,1.4-3.1,1.6c-0.9,0.2-1.8,0-2.4-0.4s-1-1.1-1.2-1.9
		c-0.2-1-0.2-2-0.1-3c0.3-2.6,0.7-5.2,1.1-7.7l1.1-7.2c-0.3-0.1-0.6-0.3-0.9-0.3c-4.1-1.3-7.9-1.5-11.5-0.8
		c-5.5,1.1-8.5,4.3-10.1,6.8c-2.4,3.7-3.2,8.4-2.3,12.5c1,4.4,4.2,6.2,9.1,6c2.5-0.1,4.9-1.3,6.5-3c0.6-0.6,1.5-1.7,1.5-1.7l0.4-0.6
		l0.2,0.7c0.1,0.3,0.2,0.5,0.2,0.8c0.6,2,1.9,3.2,3.9,3.6c1.9,0.4,4,0.2,6.1-0.5c3.3-1.1,5.9-3.4,7.5-6.9c1.8-3.8,2.5-8,1.9-12.5
		c-1.1-7.9-5.4-13.5-12.9-16.5c-4.5-1.8-9.3-2.2-14.7-1.2C19.4,1.9,13.5,5.7,9.4,11.8c-3.6,5.3-5.2,11.5-4.7,18.3
		C5,32.7,5.6,35.1,6.6,37.5z M34.6,20.3c-0.1,1.1-0.3,2.1-0.4,3.1l-0.1,0.5c-0.1,0.9-0.3,1.9-0.5,2.9c-0.3,1.6-1,3-2,4.2
		c-0.8,0.9-1.6,1.5-2.5,1.8C28.6,33,28.2,33,27.7,33c-0.6,0-1.1-0.1-1.6-0.4c-0.9-0.4-1.6-1.2-1.9-2.3c-0.4-1.2-0.5-2.5-0.3-4.2
		c0.4-2.5,1.3-4.5,2.8-6.1c1.8-1.9,3.9-2.7,6.4-2.4c0.2,0,0.5,0.1,0.7,0.2c0.1,0,0.2,0.1,0.3,0.1l0.7,0.2L34.6,20.3z"/>
</g>
</svg>
