<svg xmlns="http://www.w3.org/2000/svg" viewBox="0 0 640 480"><defs><style>.cls-1{fill:none;stroke:#fff;stroke-linecap:round;stroke-linejoin:round;stroke-width:11px}</style></defs><path class="cls-1" d="M82.7 64.67c15.93 36 31.93 72.08 42.1 110.06C131 197.8 135 221.4 138.65 245c6.92 44.14 12.87 88.57 13.48 133.25.33 24.73-1.83 51.67-18.41 70-14.55 16.1-39.27 22.08-59.57 14.42S39.25 434.2 39 412.5"/><path class="cls-1" d="M117.18 203c-5.72-56-10.07-117.53 24.61-162.56a16 16 0 018.66-5.86c9-2.28 14.06 5.23 17.1 12.17 14.64 33.44 9.47 72.05.8 107.51a603.67 603.67 0 01-36.91 106.63c11.85-11.41 17.28-27.8 26.39-41.49s25.69-25.52 41.15-19.9c5.71 2.08 10.41 6.3 14.37 10.9 12.52 14.6 22.65 33.36 26.54 52.14 11 52.43-.34 109.73-30.26 154.16-2.64 3.93-8.8 8.54-15.11 11.85a13.79 13.79 0 01-20.11-10.29c-1.41-10.2 1.47-22.23 3.18-32.7 2.65-16.27 10.61-31.13 18.53-45.58 43.47-79.36 99.26-159 117.43-247.68a118.33 118.33 0 001.12-39.6c-1.78-13.18-9.65-28.09-20.46-35.83-4.94-3.54-16.73-4.09-22.54-2.3-8.21 2.52-17.38 15.43-19.94 23.63-18.17 58.27-4.38 115-4.39 176s-7.72 123.1 25.46 174.33c5.61 8.67 14 18.14 25.15 13.35a19.94 19.94 0 008.59-7.45c23.24-35.1 45.25-115.29 33.78-144.17a10 10 0 00-17.32-2.17c-5.18 7-7.77 16.28-9.15 25.09a155.49 155.49 0 0012 87.54 15.51 15.51 0 0013.47 9.28c7.91.24 16.16-3.15 22.2-8.51 8.82-7.8 13.89-18.93 18.21-29.88 12.34-31.27 20.69-64.22 23.34-97.74q9 65 13.65 130.49c.63-45.25-2.44-92.48 23-129.89 3.73-5.49 12.57-11.94 25.09-8.84 13.8 3.42 13.57 65.79 21.78 96.88a619 619 0 012.11-81.59c1.42-15.45 6.29-30.29 19.73-30.69 7-.63 19.34 3.53 22.62 18.19s2.3 30.21 7.17 44.43c2.89 8.4 8.89 16.84 17.68 18.09s16.73-5 22.78-11.48a131.68 131.68 0 0029.3-50"/></svg>