<svg xmlns="http://www.w3.org/2000/svg" viewBox="0 0 456.39 684.39"><defs><style>.cls-1{fill:#f1aca8;}.cls-1,.cls-10,.cls-11,.cls-12,.cls-13,.cls-14,.cls-15,.cls-16,.cls-2,.cls-3,.cls-4,.cls-7,.cls-8,.cls-9{stroke:#000;}.cls-1,.cls-10,.cls-11,.cls-12,.cls-13,.cls-14,.cls-16,.cls-2,.cls-3,.cls-4,.cls-7,.cls-8,.cls-9{stroke-miterlimit:10;}.cls-1,.cls-10,.cls-12,.cls-13,.cls-2,.cls-3,.cls-4,.cls-9{stroke-width:2px;}.cls-2,.cls-5{fill:#00185f;}.cls-2{opacity:0.87;}.cls-11,.cls-3{fill:#ffe2cf;}.cls-4{opacity:0.07;}.cls-6{opacity:0.17;}.cls-7{stroke-width:0.25px;opacity:0.73;}.cls-8{fill:#fff;}.cls-10,.cls-9{fill:#ff8989;}.cls-10,.cls-12{opacity:0.91;}.cls-11{stroke-width:3px;}.cls-12{fill:#ec7070;}.cls-13,.cls-14{fill:none;}.cls-15{fill:#6a2f00;stroke-linecap:round;stroke-linejoin:round;}</style></defs><title>Монтажная область 1</title><g id="Слой_3" data-name="Слой 3"><path class="cls-1" d="M233.88,604.68S259,600,270,601s58,11,65,13,26,11.92,26,18c0,14-42,30-47,29s-24-2-24-2Z"/><polygon class="cls-2" points="275 478 400 508 264 618 167 592 101 530 275 478"/><path class="cls-3" d="M74.46,490c21.08,11,53.37,28.45,66,38.52C149.93,536,167,566,174,570s59,35,65.5,37.5c28.65,11,72.5,11.5,78.5,24.5,5.46,11.84-23,27-28,27s-114-40-122-43c-3.75-1.4-80.5-17.5-91.5-23.5s-44.89-46.4-49-56C23,526,5,502,25,486,46.75,468.6,61.41,483.17,74.46,490Z"/><path class="cls-4" d="M239.73,607.62c-6.5-2.5-58.5-33.5-65.5-37.5s-24.07-34-33.5-41.5c-12.67-10.07-45-27.53-66-38.53-9.4-4.9-19.63-13.83-32.75-11.94-.13,1.6-.72,16.29,20.06,23.85,22,8,46,27,51,32s34,29,38,34,45,35,53,37,93,24,101,26a18,18,0,0,0,11.73-1.11C307,619,266.65,618,239.73,607.62Z"/><path class="cls-1" d="M210,619s-16.86-1.47-30.43,1.26S142,612,123,613c-8.93.47-36,4-39,18-1.33,6.18,20,26,31,30s37.85,5,41.92,5S219,639,219,639Z"/><path class="cls-3" d="M374.88,502c-21.08,11-53.37,28.45-66,38.52-9.43,7.49-26.5,37.5-33.5,41.5s-59,35-65.5,37.5c-28.65,11-72.5,11.5-78.5,24.5C125.88,655.83,156,666,161,666c18,0,97-26,120.34-38,3.56-1.83,80.5-17.5,91.5-23.5s44.89-46.4,49-56c4.5-10.5,22.5-34.5,2.5-50.5C402.59,480.59,387.93,495.16,374.88,502Z"/><path class="cls-4" d="M374.77,502.66c-21.07,11-53.37,28.45-66,38.52-9.42,7.49-26.5,37.5-33.5,41.5s-59,35-65.5,37.5c-21.42,8.24-51.33,10.59-67.57,16.68C132,641,131.31,645.91,131,647c-2,7,8-1,13,0s49-11,57-15,75-34,81-38,33-40,37-46,41-24,52-29,38-13,44-15c4.56-1.52,2.26-7.75.9-10.66C398.6,485.05,386.08,496.76,374.77,502.66Z"/><path class="cls-3" d="M179.56,257.18a21.74,21.74,0,0,0-29.21-1.78c-4.23,3.41-7.71,7.5-9.35,11.6-4,10-10.85,74.19,4,94s189,72,189,72,29-84,29-97c0-12-4-41-21-47-15.35-5.42-34-1-50-6s-10-13-13-21,11-37,13-44-24-31-24-31l-31,9s-16,19-12,22,9,19,5,36S184.86,262.61,179.56,257.18Z"/><path class="cls-5" d="M263.48,337.85c-.94.94-2,1.88-3,2.8C251,349,248.73,349.27,247,351c-6,6-13,20-13,20s-5-9-5-14-19.55-46.46-22.55-50.46S198,280,198,280s-.85-15.12-5.62-17.81a27.35,27.35,0,0,1-4.79-1.26,77.63,77.63,0,0,1-11.17-6.23l-.88-.43c.2.9,1.16,5.35,2.38,11.41C181.41,280,186.68,303.24,186,310c-.65,6.46-5,26.68-8.08,40.19-1.15,6.51-2.07,11.56-2.34,13L279,403s-11.26-27.5-9-37,21-36,25-41,17-39,17-39l-20.61-2.94C289.85,286.47,269.26,332.07,263.48,337.85Z"/><path class="cls-2" d="M176,254.25S186,300,185,310s-9,53.82-9,53.82L311,416s-8.53-33-6.26-42.5S314,312,318,307s14.37-20.23,14.37-20.23L292,283s-22,49-28,55a117.25,117.25,0,0,1-15,12s-14-10-14-15-11-45-14-49-13.24-21.91-13.24-21.91-14.54-.93-19.65-3S176,254.25,176,254.25Z"/><path class="cls-6" d="M339,335.5c0,16.84-5.37,30.5-12,30.5s-8-14.16-8-31,1.37-30,8-30S339,318.66,339,335.5Z"/><path class="cls-7" d="M258.88,280.68l1.95-6.95,24.7-4.86s-17.43,4.6-20,6.48S258.88,280.68,258.88,280.68Z"/><path class="cls-3" d="M350,434s3-23,2-31,0-52-2-69c-1.31-11.1-7-40-14-46a277,277,0,0,1-23-22c-9.77-10.64-19-23-23-21-3.22,1.61,12,17,12,17a255,255,0,0,1-22-17c-6.44-5.82-11.39-11.74-14-10-6,4,12,17,14,20,1.3,1.95,4.71,3.9,6.94,5a.19.19,0,0,1-.14.36c-7.27-2.05-26.12-7.54-27.8-8.38-2-1-10-5.12-10-1,0,8,23.77,13.72,34.54,18.57A1.25,1.25,0,0,1,283,272c-6.53-.08-16.39-.31-19-1-4-1-14-2-13,2,.77,3.1,23.71,7.39,34,9.17a.86.86,0,0,1,0,1.69C281.37,284.53,264.39,300,268,300c3,0,10.77-6.18,18-9,4.76-1.86,10-1.28,11,0,4,5,23,32,30,33,6,.86-8,47-10,50s-13,12-8,24S350,434,350,434Z"/><g id="комп"><path class="cls-8" d="M387.5,402.5l-3-10L248.21,365.64c-.47-.09-1-.17-1.42-.23L112.5,348.5,94.5,361"/><path class="cls-8" d="M335.5,570.5l-2,8s-109-13-135-18-90-17-90-17v-7l104,19Z"/><path class="cls-8" d="M108.5,536.5l-13-177s109.57,8.55,138,12c33,4,154,31,154,31s-15,65-21,83-31,85-31,85l-120-15Z"/></g><path class="cls-6" d="M108.09,461.91s-17,5-14,10,11,12,11,12-15-13-18-6c-2.78,6.5,2,8,9,12s-6.47-4.42-9,0c-4,7,7,13,13,15,5.69,1.9-11-5-13,0-1.53,3.83,3,10,9,11s23,3,24,0-8-6-8-6,14.3,2.11,16-3c1-3-8.27-7.07-15-9-7-2,19,5,17-1s-4-4-10-7,5,1,5-5-21-7-17-15S108.09,461.91,108.09,461.91Z"/><path class="cls-3" d="M99.5,461.5s-17,5-14,10,11,12,11,12-15-13-18-6c-2.79,6.5,2,8,9,12s-6.47-4.43-9,0c-4,7,7,13,13,15,5.69,1.9-11-5-13,0-1.53,3.83,3,10,9,11s23,3,24,0-8-6-8-6,14.3,2.11,16-3c1-3-8.27-7.08-15-9-7-2,19,5,17-1s-4-4-10-7,5,1,5-5-21-7-17-15S99.5,461.5,99.5,461.5Z"/><circle class="cls-9" cx="239.5" cy="48.5" r="34.5"/><circle class="cls-10" cx="251.25" cy="141.75" r="93.75"/><path class="cls-11" d="M325,163c0,45.56-36,86-66,85-32-1.07-67-39.94-67-85.5S219.09,80,252.5,80,325,117.44,325,163Z"/><path class="cls-12" d="M317.22,100.31c-13.18-16.69-27-21-37-23S239,78,229,80s-23.83,6.31-37,23c-15,19-13,45-13,54,0,6.08,2,22,7,30s29,17,29,17-5-5-10-11-12-34-11.48-49S222,118,239,109c11.49-6.09,15.21-11.25,16.42-14,2.15,2.86,6.39,6.82,14.8,11.27,17,9,45,20.08,45.48,35s-6.48,43-11.48,49-10,11-10,11,24-9,29-17,7-23.92,7-30C330.22,145.31,332.22,119.31,317.22,100.31Z"/><path class="cls-13" d="M244.1,86.45A20.27,20.27,0,0,1,235,97.54c-4.73,2.68-10.3,3.33-15.62,4.47-8.91,1.9-17.74,5.46-24.2,11.9S185,130,187.36,138.82"/><path class="cls-13" d="M207.13,114.86a24.74,24.74,0,0,0-13.78,10.28c-2.61,4.07-4,8.8-5.23,13.46-2.31,8.45-4.49,17.07-4.19,25.83s3.42,17.77,10.12,23.4"/><path class="cls-13" d="M269,88c3,1.63,4.28,5.26,6.07,8.21,4.72,7.8,14,11.46,22.71,14.06s18.09,4.93,24.54,11.37"/><path class="cls-13" d="M293.86,101.52c-2.09,3.63-.83,8.41,1.79,11.68s6.33,5.42,9.83,7.72a99.75,99.75,0,0,1,10.42,7.9c3,2.62,6,5.62,7.06,9.49,1,3.68.1,7.58-.87,11.27q-3.34,12.63-7.83,24.91"/><path class="cls-13" d="M335.84,151.85c.26,5,.52,10.05-.8,14.86a46.19,46.19,0,0,1-2.49,6.51L327,185.86"/><path class="cls-13" d="M251,71.81c-7.68-4.85-16.3-8.48-25.35-9.25S207.08,64.1,200.15,70c-3.94,3.34-6.91,7.65-9.83,11.9L178.6,98.93a55.92,55.92,0,0,0-5.71,9.65c-5.07,12-1.24,25.79-2.67,38.75"/><path class="cls-13" d="M176.05,122.51a50.5,50.5,0,0,1-.44,27.29c-1.81,6-4.78,11.88-4.72,18.17.08,8.06,5.11,15.13,9.93,21.61l8.91,12"/><path class="cls-13" d="M222.89,77c.37-.76-.58-1.49-1.38-1.75a16.07,16.07,0,0,0-19.09,8.53"/><path class="cls-13" d="M259.08,84.61c1.54,2.45,1.39,5.58,2.21,8.36a12.5,12.5,0,0,0,9.69,8.61"/><path class="cls-13" d="M250.72,89.92c-1.47,4.12-3.35,8.49-7.16,10.64-3,1.69-6.85,1.79-9.33,4.15"/><path class="cls-13" d="M274.89,85.69C277,86,278.4,88,280,89.35c5.08,4.46,12.93,4.1,18.48,8a14.37,14.37,0,0,1,6,10"/><path class="cls-13" d="M256.12,68.92a17.28,17.28,0,0,1,10.94-6.57c4.26-.68,8.6.27,12.79,1.3,6.89,1.68,13.87,3.65,19.66,7.73a31.21,31.21,0,0,1,12.35,18.54"/><path class="cls-13" d="M318.46,87.18c1.5,6.92,8.28,11.46,10.9,18a29.37,29.37,0,0,1,1.63,8.49,164.17,164.17,0,0,1,.34,21.62"/><path class="cls-13" d="M339.88,127.33a31.14,31.14,0,0,1-2.33,15.55"/><path class="cls-13" d="M250.06,62.32c-.09-3,2.63-5.41,5.52-6s5.89.07,8.76.78"/><path class="cls-13" d="M217.09,51.68c-1-5.58-1.83-11.68,1-16.6,2.25-3.94,6.45-6.33,10.61-8.12,1.52-.65,3.35-1.23,4.75-.35"/><path class="cls-13" d="M233.24,20c5-2,10.65-1,15.94,0,3.17.61,6.45,1.27,9.11,3.1a17,17,0,0,1,2.85,2.58,28.47,28.47,0,0,1,7.09,21.62"/><path class="cls-13" d="M237.78,31.19c4.16-2.74,9.88-2.17,14.16.38s7.32,6.73,9.73,11.08"/><path class="cls-13" d="M242.36,37.29a5.7,5.7,0,0,1,6.62,7.5"/><path class="cls-13" d="M236.94,38.81c-2.66-.28-5.13,1.74-6.24,4.16s-1.18,5.19-1.22,7.86"/><path class="cls-13" d="M229.82,35.22l-2,3"/><path class="cls-13" d="M223.81,23.21a2.69,2.69,0,0,1,3.38-1.36,7.89,7.89,0,0,1,3.17,2.43"/><path class="cls-7" d="M249.36,280.33l-2-6.94-24.7-4.87s17.43,4.61,20,6.49S249.36,280.33,249.36,280.33Z"/><path class="cls-14" d="M175.54,557.5S187.71,570.94,199,575c12.5,4.5,25.5,14.5,25.5,14.5"/><path class="cls-14" d="M267,575s-14.68.16-20.5.5c-8.5.5-31,2-31,2"/><path class="cls-15" d="M271.5,213.5h0c-.43.1-12,3-14,3-4,0-10-3-10-3h-3a27.67,27.67,0,0,1,2.38-3c1.37-1.5,3.12-3,4.62-3,2.24,0,6,3,6,3s3-3,5-3c1.35,0,3.6,1.82,4.93,3,.64.57,1.07,1,1.07,1Z"/><path class="cls-15" d="M271.49,213.51c-.11.24-2,4.05-3,6-3.49,7-15.84,5.16-19,2-2-2-5-8-5-8h3s6,3,10,3C259.46,216.5,271.06,213.61,271.49,213.51Z"/><path class="cls-16" d="M273,173.5a7.94,7.94,0,0,1,7-4c5,0,16.66,3.64,22,2,6.5-2,10-2,10-2s-3.11,6.72-6,8c-4.5,2-8,2-11,1s-7.5-4-13-5C279.05,173,273,173.5,273,173.5Z"/><path class="cls-16" d="M243.69,172.65a7.94,7.94,0,0,0-7-4c-5,0-16.66,3.64-22,2-6.5-2-10-2-10-2s3.11,6.72,6,8c4.5,2,8,2,11,1s7.5-4,13-5C237.64,172.11,243.69,172.65,243.69,172.65Z"/><path class="cls-16" d="M277.5,161.5s8-10,12-11,18-2,19-1-12-3-15-3h-8a15.77,15.77,0,0,1-1,4C283.5,153.5,277.5,161.5,277.5,161.5Z"/><path class="cls-16" d="M239.5,159.5s-4-4-4-6v-5s-10-1-14,0-15,6-15,6,14-3,17-3S239.5,159.5,239.5,159.5Z"/><path class="cls-16" d="M270.5,134.5s7,2,10,2,11-2,13-2c4,0,18-2,22,0,2.83,1.41,6,7,6,7s-4-8-8-9-16-1-21-1S270.5,134.5,270.5,134.5Z"/><path class="cls-16" d="M243.68,135.34s-7,2-10,2-11-2-13-2c-4,0-18-2-22,0-2.83,1.42-6,7-6,7s4-8,8-9,16-1,21-1S243.68,135.34,243.68,135.34Z"/></g></svg>