<?xml version="1.0" encoding="utf-8"?>
<!-- Generator: Adobe Illustrator 21.0.0, SVG Export Plug-In . SVG Version: 6.00 Build 0)  -->
<svg version="1.1" id="Слой_1" xmlns="http://www.w3.org/2000/svg" xmlns:xlink="http://www.w3.org/1999/xlink" x="0px" y="0px"
	 viewBox="0 0 84.6 71.4" style="enable-background:new 0 0 84.6 71.4;" xml:space="preserve">
<style type="text/css">
	.st0{fill:#028DA7;}
</style>
<path class="st0" d="M52.9,62C53,62,53,62,52.9,62h0.2c0.8-0.1,1.4-0.7,1.4-1.5L64.9,22H83c0.9,0,1.6-0.7,1.6-1.6s-0.7-1.6-1.6-1.6
	H63.8c-0.3,0-0.6,0-0.8,0.1c-0.1,0-0.2,0.1-0.3,0.1c-0.1,0.1-0.2,0.1-0.2,0.2c-0.1,0.1-0.2,0.2-0.2,0.2l-0.1,0.1
	c0,0.1-0.1,0.1-0.1,0.1c0,0.1-0.1,0.1-0.1,0.2l-4,14.7H1.6c-0.9,0-1.6,0.7-1.6,1.6s0.7,1.6,1.6,1.6h55.6l-1.4,5.2H5.2
	c-0.9,0-1.6,0.7-1.6,1.6s0.7,1.6,1.6,1.6h49.7l-1.2,4.6H9.4c-0.9,0-1.6,0.7-1.6,1.6s0.7,1.6,1.6,1.6h43.5l-1.3,4.7H13
	c-0.9,0-1.6,0.7-1.6,1.6s0.7,1.6,1.6,1.6h6.7h26.4h6.8V62z"/>
<path class="st0" d="M15,66.7c0,2.6,2.1,4.7,4.7,4.7s4.7-2.1,4.7-4.7S22.3,62,19.7,62S15,64.1,15,66.7z M19.7,64.9
	c1,0,1.8,0.8,1.8,1.8s-0.8,1.8-1.8,1.8s-1.8-0.8-1.8-1.8S18.7,64.9,19.7,64.9z"/>
<path class="st0" d="M41.4,66.7c0,2.6,2.1,4.7,4.7,4.7s4.7-2.1,4.7-4.7S48.7,62,46.1,62S41.4,64.1,41.4,66.7z M46.1,64.9
	c1,0,1.8,0.8,1.8,1.8s-0.8,1.8-1.8,1.8s-1.8-0.8-1.8-1.8S45.1,64.9,46.1,64.9z"/>
<path class="st0" d="M38.2,1.4c-2.5-1-5.2-1.4-8-1.4C21.4,0,13.3,5.2,9.5,13.2C8,16.4,7.2,19.8,7.2,23.4c0,2.1,0.3,4.1,0.8,6.1h3.6
	c-0.5-1.6-0.8-3.2-0.9-4.8v-0.4h8.4v0.4c0,1.6,0.2,3.2,0.4,4.8h2.1c-0.2-1.6-0.4-3.2-0.4-4.8v-0.4h8v5.2h2.1v-5.2h8v0.4
	c0,1.6-0.2,3.2-0.4,4.8H41c0.2-1.6,0.4-3.2,0.4-4.8v-0.4h8v0.4c-0.1,1.6-0.4,3.2-0.9,4.8h3.9c0.6-2,0.8-4.1,0.8-6.2
	C53.2,13.5,47.2,4.8,38.2,1.4z M20.2,12.9c-0.7,2.8-1,5.8-1.1,8.9v0.4h-8.4v-0.4c0.3-4.1,1.8-7.8,4.4-11l0.2-0.2l0.3,0.2
	c1.4,0.7,2.9,1.3,4.3,1.8l0.3,0.1L20.2,12.9z M21,10.2l-0.1,0.4l-0.4-0.1c-0.9-0.3-1.9-0.7-3.1-1.2l-0.5-0.2l0.4-0.4
	c1.5-1.4,3.2-2.4,5-3.2l1-0.4l-0.5,1C22.1,7.2,21.5,8.7,21,10.2z M29.2,22.2h-8v-0.4c0.1-2.9,0.4-5.7,1-8.3l0.1-0.4l0.4,0.1
	c2,0.5,4.1,0.7,6.2,0.8h0.4v8.2H29.2z M29.2,12h-0.4c-1.9-0.1-3.7-0.3-5.5-0.7l-0.4-0.1l0.1-0.4c0.9-2.8,4.9-5.6,5.8-5.6h0.4V12z
	 M31.3,5h0.4c0.9,0.1,4.8,2.8,5.7,5.6l0.1,0.4l-0.4,0.1c-1.8,0.4-3.6,0.6-5.5,0.7h-0.4L31.3,5z M31.3,22.2v-8.1h0.4
	c2.1-0.1,4.1-0.4,6.1-0.8l0.4-0.1l0.1,0.4c0.6,2.6,1,5.3,1,8.3v0.4L31.3,22.2L31.3,22.2z M39.6,10.6l-0.1-0.4
	c-0.5-1.4-1-2.8-1.7-4.1l-0.5-1l1,0.5C40,6.4,41.6,7.5,43,8.7l0.4,0.4l-0.5,0.2c-1.1,0.5-2,0.8-2.9,1.1L39.6,10.6z M41.3,22.2v-0.4
	c-0.1-3.1-0.5-6.1-1.1-8.9l-0.1-0.3l0.3-0.1c1.4-0.4,2.8-1,4.1-1.7l0.3-0.1l0.2,0.2c2.5,3.1,4,6.8,4.3,10.8v0.4h-8V22.2z"/>
</svg>
