<?xml version="1.0" encoding="utf-8"?>
<!-- Generator: Adobe Illustrator 21.0.0, SVG Export Plug-In . SVG Version: 6.00 Build 0)  -->
<svg version="1.1" id="Слой_1" xmlns="http://www.w3.org/2000/svg" xmlns:xlink="http://www.w3.org/1999/xlink" x="0px" y="0px"
	 viewBox="0 0 87.7 82.3" style="enable-background:new 0 0 87.7 82.3;" xml:space="preserve">
<style type="text/css">
	.st0{fill:#662D91;}
</style>
<g>
	<path class="st0" d="M57.7,66.7c0-5.3-4.3-9.7-9.7-9.7c-5.3,0-9.7,4.3-9.7,9.7c0,3.3,1.7,6.4,4.5,8.2l0.5,0.3l-2.5,5.6
		c-0.1,0.2-0.1,0.5,0,0.7s0.3,0.4,0.5,0.5l0.4,0.2c0.5,0.2,1,0,1.2-0.5l2.5-5.7l0.6,0.1c1.2,0.2,2.4,0.2,3.7,0l0.6-0.1l2.5,5.7
		c0.2,0.5,0.8,0.7,1.2,0.5l0.4-0.2c0.2-0.1,0.4-0.3,0.5-0.5s0.1-0.5,0-0.7l-2.4-5.6l0.5-0.3C56,73.1,57.7,70.1,57.7,66.7z
		 M50.8,73.3L50.8,73.3c-1,0.4-1.9,0.6-2.8,0.6c-3.9,0-7.1-3.2-7.1-7.1s3.2-7.1,7.1-7.1s7.1,3.2,7.1,7.1
		C55.1,69.6,53.4,72.1,50.8,73.3z"/>
	<path class="st0" d="M76.4,23.6l-0.6-0.1V1.4c0-0.8-0.6-1.4-1.4-1.4H22.2c-0.8,0-1.4,0.6-1.4,1.4s0.6,1.4,1.4,1.4H73v20.6h-6.7
		V10.1c0-0.8-0.6-1.4-1.4-1.4H13.4c-0.8,0-1.4,0.6-1.4,1.4v8.7l-0.6,0.1C4.8,19.9,0,25.3,0,31.6c0,6.3,4.8,11.7,11.4,12.7l0.6,0.1
		v30.1c0,0.8,0.6,1.4,1.4,1.4h20.2c0.8,0,1.4-0.6,1.4-1.4s-0.6-1.4-1.4-1.4H14.8V44.5h32.7l-4.3,4.3c-0.3,0.3-0.4,0.6-0.4,1
		s0.1,0.7,0.4,1l0.2,0.2c0.5,0.5,1.4,0.5,2,0l6.6-6.6c0.3-0.3,0.4-0.6,0.4-1s-0.1-0.7-0.4-1l-6.6-6.6c-0.5-0.5-1.4-0.5-2,0L43.2,36
		c-0.3,0.3-0.4,0.6-0.4,1s0.1,0.7,0.4,1l3.8,3.8H14.8V11.5h48.7v11.9H30.3l4.2-4.3c0.5-0.5,0.5-1.4,0-2l-0.2-0.2
		c-0.5-0.5-1.4-0.5-2,0l-6.6,6.6c-0.3,0.3-0.4,0.6-0.4,1s0.1,0.7,0.4,1l6.6,6.6c0.5,0.5,1.4,0.5,2,0l0.2-0.2c0.5-0.5,0.5-1.4,0-2
		L30.6,26h32.8v47.2h-1.6c-0.8,0-1.4,0.6-1.4,1.4S61,76,61.8,76h3c0.8,0,1.4-0.6,1.4-1.4v-0.2v-0.1V26h6.7v41.9
		c0,0.8,0.6,1.4,1.4,1.4s1.4-0.6,1.4-1.4V49.2l0.6-0.1c6.6-1,11.4-6.4,11.4-12.8S83,24.6,76.4,23.6z M12.1,41.7l-0.9-0.2
		c-5-1-8.4-5-8.4-9.9c0-5,3.4-9,8.4-10l0.9-0.2V41.7z M76.7,46.4l-0.9,0.2V26.3l0.9,0.2c5,1,8.4,5,8.4,10
		C85.1,41.3,81.7,45.3,76.7,46.4z"/>
</g>
</svg>
