<?xml version="1.0" encoding="utf-8"?>
<!-- Generator: Adobe Illustrator 21.0.0, SVG Export Plug-In . SVG Version: 6.00 Build 0)  -->
<svg version="1.1" id="Слой_1" xmlns="http://www.w3.org/2000/svg" xmlns:xlink="http://www.w3.org/1999/xlink" x="0px" y="0px"
	 viewBox="0 0 80.3 80.5" style="enable-background:new 0 0 80.3 80.5;" xml:space="preserve">
<style type="text/css">
	.st0{fill:#fff;}
</style>
<g>
	<polygon class="st0" points="33.1,39.8 33.7,39.8 33.4,38.9 	"/>
	<path class="st0" d="M72.3,42.4h-0.8H72.3L72.3,42.4z"/>
	<g>
		<path class="st0" d="M32,32.6l-4.9,14.5H30l1.4-4.2h4.1l1.4,4.2h2.9l-4.9-14.5H32z M32,40.5l1.1-3.2c0.1-0.2,0.2-0.5,0.2-0.7
			c0.1,0.3,0.2,0.5,0.2,0.8l1.1,3.2L32,40.5L32,40.5z"/>
		<path class="st0" d="M44.4,32.5c-1.2,0-2.3,0.1-3.4,0.3l-0.4,0.1v14.2l0,0l0,0h2.7v-5.3c0.3,0,0.6,0,0.9,0c1.9,0,3.5-0.6,4.5-1.6
			c0.8-0.8,1.2-1.9,1.2-3.2c0-1.3-0.5-2.4-1.3-3.2C47.6,33,46.2,32.5,44.4,32.5z M44.2,39.4c-0.4,0-0.7,0-0.9-0.1V35
			c1-0.1,3.8-0.4,3.8,2.1C47.1,39.1,45.3,39.4,44.2,39.4z"/>
		<rect x="51.2" y="32.6" class="st0" width="2.7" height="14.5"/>
	</g>
	<path class="st0" d="M70.2,47.1l0.2-1.5c0.1-1.1,0.3-2.2,0.4-3.3l0,0c0.1-0.7,0.4-1,1-1.2c0.7-0.2,1.4-0.4,2.1-0.5
		c0.4-0.1,0.8-0.2,1.1-0.3c3.4-0.9,5.7-4.4,5.2-7.8c-0.3-1.9-0.7-3.6-1.3-5.2c-1.2-3.1-4.3-5-7.6-4.5c-1.1,0.2-2.2,0.4-3.3,0.7
		c-0.4,0.1-0.8,0.2-1.2,0.3l-0.5,0.1L65.7,23c-0.4-0.5-0.8-1.1-1.1-1.6c-0.2-0.2-0.4-0.5-0.6-0.7c-0.5-0.5-1-1-1-1.7
		s0.4-1.3,0.8-1.9c0.2-0.2,0.3-0.5,0.5-0.7c2.1-3.7,0.9-8-2.7-10.2c-1-0.6-1.9-1.1-2.8-1.6c-3.6-2-8-0.7-10,2.8
		c-0.1,0.2-0.2,0.4-0.3,0.6l-0.1,0.1c-0.3,0.5-0.6,1-0.9,1.5c-0.2,0.3-0.5,0.4-0.8,0.5h-0.1h-0.1c-1.5-0.2-3.1-0.4-4.7-0.6l-0.2-0.1
		C41.4,9.3,41.1,9,41,8.7c-0.2-0.6-0.3-1.1-0.5-1.7S40.2,5.8,40,5.2c-1.1-3.4-4.4-5.6-7.9-5.1c-1.7,0.3-3.4,0.8-4.5,1.1
		c-3.3,1.1-5.3,4.3-4.9,7.7c0.1,0.9,0.4,1.8,0.6,2.7c0.2,0.6,0.3,1.2,0.4,1.8c0.1,0.3-0.1,0.8-0.3,1.1c-1.1,0.9-2.2,1.8-3.4,2.7
		c-0.3,0.2-0.8,0.2-1.1,0.1c-0.5-0.2-0.9-0.5-1.4-0.8l-0.1-0.1c-0.2-0.1-0.4-0.2-0.6-0.3c-2.8-1.6-6.2-1.3-8.6,0.9
		c-1.3,1.1-2.1,2.7-2.8,4.2L5,21.9c-1.8,3.5-0.6,7.7,2.8,9.8C8,31.8,8.3,32,8.5,32.1C9,32.4,9.4,32.6,9.9,33c0.3,0.3,0.5,0.7,0.4,1
		c-0.1,0.7-0.2,1.4-0.3,2.1c-0.1,0.8-0.2,1.5-0.3,2.2c0,0.4-0.1,0.8-0.8,1C8,39.5,7.1,39.8,6.2,40l-0.8,0.2c-3.7,1.1-6,4.7-5.3,8.5
		c0.3,1.5,0.6,2.9,1.1,4.2c1.2,3.4,4.6,5.5,8.2,4.8c0.8-0.1,1.6-0.4,2.4-0.6c0.6-0.2,1.2-0.3,1.8-0.5c0.4-0.1,0.8,0.1,1.1,0.4
		c0.8,0.9,1.5,1.9,2.2,2.9l0.9,1.2L17.3,62l-0.7-0.2l0.6,0.4c-0.3,0.6-0.7,1.2-1,1.8c-1.7,3.4-0.6,7.6,2.7,9.6
		c0.9,0.6,1.9,1.1,2.8,1.7c3.7,2,8,0.9,10.2-2.8c0.1-0.2,0.3-0.5,0.4-0.7c0.2-0.4,0.5-0.9,0.8-1.3l0.1-0.1c0.1-0.2,0.4-0.3,0.6-0.3
		h0.1H34c1.6,0.2,3,0.4,4.4,0.6l0.2,0.1c0.3,0.1,0.5,0.4,0.6,0.6c0.3,0.8,0.5,1.7,0.7,2.5l0.3,1.2c0.9,3.2,3.7,5.4,7,5.4
		c0.4,0,0.9,0,1.3-0.1c1.3-0.2,2.6-0.6,3.8-1c3.9-1.2,6.1-5.1,5.1-9l-0.3-1c-0.2-0.9-0.5-1.7-0.6-2.6v-0.1c0-0.3,0.1-0.7,0.3-0.9
		c1.2-1,2.3-1.9,3.5-2.7c0.3-0.2,0.7-0.2,1-0.1c0.5,0.3,1,0.5,1.4,0.8c0.3,0.2,0.6,0.4,1,0.5c3.5,1.9,7.8,0.7,9.8-2.7
		c0.4-0.6,0.7-1.2,1.1-1.8l0.5-0.9c2.1-3.7,1-8.1-2.7-10.3c-0.5-0.3-1.1-0.7-1.6-1L70.2,47.1z M73.3,57.4c-0.5,0.9-1,1.8-1.6,2.7
		c-1.4,2.3-4.2,3.1-6.6,1.8c-1.5-0.8-2.8-1.6-4-2.3c-0.3-0.2-0.5-0.2-0.7,0.1c-1.9,1.9-4,3.6-6.3,4.9c-0.4,0.2-0.4,0.3-0.3,0.7
		c0.3,1.1,0.6,2.2,0.9,3.3l0.1,0.4c0.1,0.5,0.3,1.1,0.4,1.6c0.8,3.1-0.6,5.6-3.7,6.5l-0.7,0.2c-0.7,0.2-1.4,0.4-2.1,0.5
		c-0.4,0.1-0.8,0.1-1.2,0.1c-2.2,0-4.1-1.4-4.7-3.7c-0.5-1.8-1-3.7-1.5-5.5c-0.1-0.5-0.3-0.6-0.6-0.6c-2.5,0.1-5-0.2-7.9-1
		c-0.3-0.1-0.4,0-0.6,0.3c-0.7,1.2-1.4,2.5-2.1,3.7c-1.5,2.6-4.3,3.4-7,1.9c-0.8-0.4-1.6-0.9-2.3-1.4c-2.6-1.5-3.3-4.3-1.8-6.9
		c0.7-1.3,1.4-2.5,2.2-3.8c0.2-0.3,0.2-0.4-0.1-0.7c-1.9-1.9-3.6-4-4.9-6.4c-0.2-0.3-0.3-0.3-0.6-0.2l-0.9,0.3
		c-1.7,0.5-3.3,0.9-4.9,1.3c-2.2,0.5-4.5-0.6-5.3-2.6c-0.7-1.6-1.1-3.2-1.3-4.8c-0.3-2.5,1.2-4.6,3.8-5.2c0.6-0.2,1.3-0.3,1.9-0.5H9
		c1.1-0.3,2.2-0.6,3.2-0.9c0.4-0.1,0.6-0.2,0.6-0.7c-0.1-2.6,0.3-5.2,1-7.8c0.1-0.4,0.1-0.6-0.4-0.8c-1.2-0.7-2.4-1.4-3.6-2
		l-0.1-0.1c-2.6-1.5-3.3-4.4-1.8-7l0.3-0.6c0.4-0.7,0.7-1.3,1.1-1.9c1.4-2.4,4.2-3.1,6.7-1.8c1.2,0.7,2.5,1.4,3.8,2.2
		c0.4,0.2,0.5,0.2,0.9-0.1c1.8-1.9,3.9-3.6,6.2-4.8c0.3-0.2,0.4-0.3,0.3-0.7c-0.4-1.6-0.9-3.2-1.2-4.6l-0.2-0.6
		c-0.8-3,0.7-5.5,3.7-6.3l0.8-0.2c0.6-0.2,1.3-0.4,2-0.5c2.7-0.6,5.2,0.9,6,3.7c0.5,1.7,0.9,3.3,1.3,5c0.1,0.5,0.3,0.7,0.9,0.7
		c2.4-0.1,5,0.2,7.7,1c0.5,0.1,0.6,0.1,0.9-0.4c0.7-1.3,1.5-2.6,2.1-3.7c1.6-2.7,4.3-3.4,7-1.9l0.3,0.2c0.7,0.4,1.4,0.8,2.1,1.2
		c2.5,1.5,3.2,4.3,1.8,6.9c-0.7,1.2-1.4,2.5-2.3,3.9c-0.2,0.3-0.2,0.5,0.1,0.8c1.9,1.9,3.6,4,4.9,6.4c0.2,0.4,0.4,0.5,0.9,0.4
		c1.4-0.4,2.7-0.8,4.1-1.1l0.8-0.2c3-0.8,5.5,0.6,6.3,3.7c0.3,0.9,0.5,1.8,0.7,2.6l0.2,0.9v0.1c-0.1,2.7-1.4,4.5-3.7,5.2l-1.2,0.3
		c-1.3,0.4-2.7,0.7-4.1,1.1c-0.5,0.1-0.6,0.3-0.6,0.7c0,2.5-0.3,5.1-1.1,7.7c-0.1,0.5-0.1,0.7,0.4,0.9c1.3,0.7,2.5,1.4,3.7,2.1
		C73.9,52.2,74.6,54.9,73.3,57.4z"/>
	<path class="st0" d="M40.6,17.9C40.5,17.9,40.5,17.9,40.6,17.9c-5.9,0-11.3,2.3-15.5,6.4c-4.2,4.2-6.6,9.8-6.6,15.8
		c0,5.9,2.3,11.5,6.4,15.7c4.2,4.2,9.7,6.5,15.6,6.5l0,0c5.6,0.1,11.3-2.2,15.5-6.3c4.2-4.2,6.6-9.8,6.6-15.9
		C62.6,27.7,52.9,17.9,40.6,17.9z M54.1,54c-3.6,3.6-8.5,5.6-13.6,5.6c0,0,0,0-0.1,0c-10.8,0-19.3-8.7-19.3-19.8
		c0-5.1,2.1-9.9,5.8-13.6c3.7-3.7,8.5-5.7,13.6-5.7l0,0c10.6,0,19.3,8.8,19.2,19.6C59.8,45.4,57.8,50.3,54.1,54z"/>
</g>
</svg>
