<?xml version="1.0" encoding="utf-8"?>
<!-- Generator: Adobe Illustrator 21.0.0, SVG Export Plug-In . SVG Version: 6.00 Build 0)  -->
<svg version="1.1" id="Слой_1" xmlns="http://www.w3.org/2000/svg" xmlns:xlink="http://www.w3.org/1999/xlink" x="0px" y="0px"
	 viewBox="0 0 265.9 259.4" style="enable-background:new 0 0 265.9 259.4;" xml:space="preserve">
<style type="text/css">
	.st0{fill:rgba(255, 255, 255, 0.21);}
</style>
<g>
	<path class="st0" d="M261.3,37H70.1v-5H87c2.5,0,4.5-2,4.5-4.5V4.8c0-0.1,0-0.2,0-0.4C91.5,1.9,89.4,0,87,0H43.9
		c-1.5,0-2.9,0.7-3.8,2c-0.2,0.2-0.3,0.5-0.4,0.8c-0.2,0.6-0.4,1.1-0.4,1.8v22.9c0,2.5,2,4.5,4.5,4.5h16.9v5H4.5C2,37,0,39,0,41.5
		v184.4c0,2.5,2,4.5,4.5,4.5h14.9c2.5,0,4.5-2,4.5-4.5s-2-4.5-4.5-4.5H9V46.1h247.8v175.3h-90c-2.5,0-4.5,2-4.5,4.5s2,4.5,4.5,4.5
		h94.6c2.5,0,4.5-2,4.5-4.5V41.5C265.9,39,263.8,37,261.3,37z M48.5,23V9.1h34V23H48.5z"/>
	<path class="st0" d="M174.4,100.5c8.1,0,14.6-6.6,14.6-14.6c0-8.1-6.6-14.6-14.6-14.6s-14.6,6.6-14.6,14.6S166.4,100.5,174.4,100.5
		z M174.4,79.2c3.7,0,6.6,3,6.6,6.6c0,3.7-3,6.6-6.6,6.6c-3.7,0-6.6-3-6.6-6.6S170.8,79.2,174.4,79.2z"/>
	<path class="st0" d="M212.3,100.5c8.1,0,14.6-6.6,14.6-14.6c0-8.1-6.6-14.6-14.6-14.6s-14.6,6.6-14.6,14.6
		C197.7,93.9,204.3,100.5,212.3,100.5z M212.3,79.2c3.7,0,6.6,3,6.6,6.6c0,3.7-3,6.6-6.6,6.6s-6.6-3-6.6-6.6
		C205.7,82.2,208.7,79.2,212.3,79.2z"/>
	<path class="st0" d="M174.4,138.4c8.1,0,14.6-6.6,14.6-14.6c0-8.1-6.6-14.6-14.6-14.6s-14.6,6.6-14.6,14.6S166.4,138.4,174.4,138.4
		z M174.4,117.1c3.7,0,6.6,3,6.6,6.6c0,3.7-3,6.6-6.6,6.6c-3.7,0-6.6-3-6.6-6.6S170.8,117.1,174.4,117.1z"/>
	<path class="st0" d="M212.3,138.4c8.1,0,14.6-6.6,14.6-14.6c0-8.1-6.6-14.6-14.6-14.6s-14.6,6.6-14.6,14.6
		C197.7,131.8,204.3,138.4,212.3,138.4z M212.3,117.1c3.7,0,6.6,3,6.6,6.6c0,3.7-3,6.6-6.6,6.6s-6.6-3-6.6-6.6
		C205.7,120.1,208.7,117.1,212.3,117.1z"/>
	<path class="st0" d="M174.4,176.3c8.1,0,14.6-6.6,14.6-14.6c0-8.1-6.6-14.6-14.6-14.6s-14.6,6.6-14.6,14.6
		C159.8,169.7,166.4,176.3,174.4,176.3z M174.4,155c3.7,0,6.6,3,6.6,6.6c0,3.7-3,6.6-6.6,6.6c-3.7,0-6.6-3-6.6-6.6
		S170.8,155,174.4,155z"/>
	<path class="st0" d="M212.3,176.3c8.1,0,14.6-6.6,14.6-14.6c0-8.1-6.6-14.6-14.6-14.6s-14.6,6.6-14.6,14.6
		C197.7,169.7,204.3,176.3,212.3,176.3z M212.3,155c3.7,0,6.6,3,6.6,6.6c0,3.7-3,6.6-6.6,6.6s-6.6-3-6.6-6.6
		C205.7,158,208.7,155,212.3,155z"/>
	<path class="st0" d="M162.3,192.8c0,2.5,2,4.5,4.5,4.5h52.6c2.5,0,4.5-2,4.5-4.5s-2-4.5-4.5-4.5h-52.6
		C164.3,188.2,162.3,190.3,162.3,192.8z"/>
	<path class="st0" d="M68.6,101.5h49.5c2.5,0,4.5-2,4.5-4.5s-2-4.5-4.5-4.5H68.6c-2.5,0-4.5,2-4.5,4.5S66.1,101.5,68.6,101.5z"/>
	<path class="st0" d="M68.6,122.8h49.5c2.5,0,4.5-2,4.5-4.5s-2-4.5-4.5-4.5H68.6c-2.5,0-4.5,2-4.5,4.5S66.1,122.8,68.6,122.8z"/>
	<path class="st0" d="M142.4,71.2H44.2c-2.4,0.1-4.4,2.1-4.4,4.5v63.8c0,2.5,2,4.5,4.4,4.5h0.4l0,0h98c2.4-0.1,4.4-2.1,4.4-4.5V75.7
		C146.9,73.3,144.9,71.2,142.4,71.2z M137.8,135h-89V80.3h89V135z"/>
	<path class="st0" d="M142.4,155.3H44.2c-2.4,0.1-4.4,2.1-4.4,4.5v25.4c0,2.5,2,4.5,4.5,4.5s4.5-2,4.5-4.5v-20.9h89v20.9
		c0,2.5,2,4.5,4.5,4.5s4.5-2,4.5-4.5v-25.5c0-1.2-0.5-2.3-1.3-3.1C144.7,155.8,143.6,155.3,142.4,155.3z"/>
	<path class="st0" d="M117.8,184.2c-9.3-3.7-19.2-4.5-30.3-2.4c-15.2,2.9-27.2,10.7-35.8,23.4c-7.5,11-10.7,23.7-9.8,37.9
		c0.3,5,1.5,10,3.6,15c0,0.1,0.1,0.1,0.1,0.2h0.1c2.5-0.1,5-0.1,7.4-0.1c0.4,0,0.8,0,1.2,0c-0.1-0.1-0.1-0.3-0.2-0.4
		c-0.8-1.8-1.6-3.6-2.2-5.5c-2.5-8.2-3-17.1-1.3-26.4c2.3-12.6,8.2-22.6,17.5-29.8c12.2-9.4,26.4-12.2,42-8.2
		c10.9,2.8,18.7,9.2,23.4,19.3c2.1,4.4,3.2,9.3,3.5,14.7c0.4,7.4-0.6,13.7-3,19.4c-1.3,3-3,5.6-5.1,7.7c-2,1.9-4.4,3.2-7,3.7
		c-2.2,0.4-4.2,0.1-5.7-1c-1.5-1-2.5-2.6-2.8-4.7c-0.4-2.2-0.4-4.4-0.1-6.5c0.7-5.5,1.6-11.1,2.4-16.5c0.3-2.2,0.7-4.4,1-6.5
		c0.3-2.2,0.6-4.4,1-6.5l0.2-1c-0.4-0.2-0.7-0.3-1.1-0.4c-8.4-2.6-16.2-3.1-23.7-1.6c-11.1,2.3-17.4,8.8-20.6,13.9
		c-4.8,7.5-6.6,17.1-4.6,25.6c2,8.8,8.8,13.2,18,11.5c5-0.9,9.1-3.6,12.5-8.2l2.3-3.1l3.6,0.5l0.7,2.4c0.2,0.5,0.3,1.1,0.5,1.6
		c1.2,3.8,3.7,6.1,7.5,6.8c4,0.8,8,0.5,12.3-1c6.8-2.3,11.8-6.9,15.3-14c3.8-7.8,5.1-16.4,3.8-25.7
		C142.1,201.8,133.2,190.4,117.8,184.2z M104.3,222.1c-0.3,2.3-0.6,4.5-0.9,6.7l-0.1,0.9c-0.3,2-0.6,4.1-1,6.1
		c-0.7,3.5-2.2,6.5-4.3,9.2c-1.7,2.1-3.6,3.4-5.7,4.2c-1.1,0.4-2.1,0.5-3.2,0.5c-1.3,0-2.6-0.3-3.7-0.8c-2.1-1-3.7-2.9-4.5-5.3
		c-1.2-3.5-0.9-7-0.6-9.3c0.8-5.3,2.8-9.8,6.1-13.3c3.9-4.2,8.7-6,14.1-5.3c0.6,0.1,1.2,0.2,1.7,0.4c0.2,0.1,0.4,0.1,0.6,0.2
		l2.2,0.5L104.3,222.1z"/>
</g>
</svg>
