<svg xmlns="http://www.w3.org/2000/svg" width="146" height="165" viewBox="0 0 231 287"><path d="M222.99 210.06l-13.8-10.8 1.2 8.2-15.8-4.3c-1.7-4-10.6-8.4-13.7-7.8l-14.3 3.2-6-8.1-.7-5.7a215.29 215.29 0 0 0-41.7 3.1c-.9.7-54.4 0-54.4 0l-26.7 7.2c-10.9 2.9-23.5 9.8-29.4 19.3l-4 6.4s-10.9 45.6 24 49.8c8.2 1 50.8 1.2 50.8 1.2l22 4.2 98.6-6.9s27.2-11.5 28.5-19.2c2-11 3.3-28.9-4.6-39.8z" fill="#1a1f32"/><path d="M147.09 257.36c2.8.7 23.6 3.5 23.6 3.5s14.9-.9 16.6-1.4 7.9 1.4 7.9 1.4l-.5 4.7-9.7 1.9s11.9 2.8 9.4 3.7c-.6.2-.1 2.7-1.4 5s-4.3 4.5-5.1 6c-2.5 4.7-13.4 1.6-13.4 1.6l-17-3.1-13.7-7.1-27-2 11.1-5.1c5-2.3 4.3-11.6 3.7-16.4z" fill="#cea484"/><path d="M205.69 175.56l4.3-9.2-23.6-38-1.4-10.7a29.52 29.52 0 0 0-10.1-18.8l-17.5-15.1-13.4-3.8-24.9-13.6h-22.1l-5.7 1.5-4.8 9.2-16.7 1.3-15.5 9.2-2.9 1.7-3 10.4-.1 1.5-21.7-1.1c-.8 1-9 3.2-9 3.2l-3.6 16.7-6.1 17.7-1.7 14.7a40.09 40.09 0 0 0 5.5 25.3l5.3 8.7a15.4 15.4 0 0 0 26.8 2.4l2.3-2.5a47.13 47.13 0 0 0 14.8-17.3l11.9 8.4 17.7-.3 4.3 1.5a20.64 20.64 0 0 0 8.2 1.1l9-.6 10.5 2a10.19 10.19 0 0 0 3.9-.1l12.8-3.4 10 1.2 9.7-3.4 2 15.2 6 8.1 14.3-3.2c3.2-.6 12 3.8 13.7 7.8l15.8 4.3z" fill="#372db4"/><path d="M73.29 175.56c1.5.6 3.4.2 5.1-.1z" fill="#2a2f5a"/><path d="M25.89 103.46l-.6.9c-3.8 5.2 0 16.1 2.5 21.5 5.9 12.9 15.5 12.8 15.6 12.7 10.3-4.8 13.6-16.8 12.7-28.1l-.3-3.2" fill="#1a1f32"/><path d="M28.39 38.26l-5.4-11.4a5.26 5.26 0 0 1-.3-3.5l2.2-8.5a4 4 0 0 1 3.2-.6c1.8-.5 3.6 5.3 2.5 6.9l-.4 2a4.88 4.88 0 0 0 .5 3.1l4 5.5" fill="#cea484"/><path d="M40.19 79.16l-4-2.3-9.7-22.5-3.2-7.1 1.9-5.2 10.3-12a3.18 3.18 0 0 1 2.9-1.1l10.6 1.1 3.6 3.2-2.4 3.9h2.4l5.3-1.1 2.7 15.3-5.7 6.2.7 10.7-4.2 11v32l-6.1 6c-5.7 2.4-13.8-1.2-17.1-6.2l-2.8-2.6 10.9-31.5" fill="#cea484"/><path d="M62.49 50.96l-2.7-15.3a2 2 0 0 0-.9-1.3 2.06 2.06 0 0 0-1.5-.3l-3.4.7.3-.4a2 2 0 0 0-.4-2.6l-3.6-3.2a1.61 1.61 0 0 0-1.1-.5l-10.6-1.1a5.11 5.11 0 0 0-4.1 1.3l-2.2-3.1a2.26 2.26 0 0 1-.2-1.6l.3-1.7c1.1-2.3 0-6.1-1.3-7.9a3.62 3.62 0 0 0-2.9-1.7 5.78 5.78 0 0 0-4.4.9 2.15 2.15 0 0 0-.9 1.2l-2.2 8.5a6.67 6.67 0 0 0 .5 4.8l4.9 10.3-2.3 2.8a2.09 2.09 0 0 0-.4.6l-1.9 5.2a1.6 1.6 0 0 0 .1 1.5l3.2 7.1 9.4 21.8-10.7 30.8a1.86 1.86 0 0 0 .5 2.1l2.7 2.5a19.45 19.45 0 0 0 14.7 7.6 12.67 12.67 0 0 0 4.7-.9 2.09 2.09 0 0 0 .6-.4l6.1-6a2 2 0 0 0 .6-1.4v-31.7l4-10.7a2.2 2.2 0 0 0 .1-.8l-.6-9.9 5.1-5.6a1.84 1.84 0 0 0 .5-1.6zm-37.7-24.9a3.07 3.07 0 0 1-.2-2.1l2-7.6a1.76 1.76 0 0 1 .6-.1h.1c.2.1.4.1.6.2.6.8 1.2 3.1.9 3.8a1.08 1.08 0 0 0-.3.7l-.4 2a6.68 6.68 0 0 0 .7 4.4c0 .1.1.1.1.2l2.8 3.9-3 3.4zm28.6 30.1a1.65 1.65 0 0 0-.5 1.5l.6 10.3-4 10.6a1.7 1.7 0 0 0-.1.7v31.1l-5.2 5.1c-4.7 1.7-11.7-1.6-14.4-5.6a1.38 1.38 0 0 1-.3-.4l-1.9-1.8 9.7-28 1.9 1.1a2 2 0 0 0 2-3.4l-3.4-2-9.4-22-2.8-6.3 1.5-4.1 8-9.3a6.89 6.89 0 0 0 .8-.3 2.09 2.09 0 0 0 .8-1.6l.4-.4a1.66 1.66 0 0 1 1.2-.5l9.9 1.1 1.8 1.6-1.5 2.4c0 .1-.1.1-.1.2l-6.1-1.5a4.28 4.28 0 0 0-4.6 1.7l-6.8 9.4a2 2 0 0 0 3.2 2.4l6.8-9.4a.76.76 0 0 1 .4-.2l8.1 2 .9 3.2-1.1 1.1-5.7-2a2 2 0 0 0-2.4.9l-4.9 8.5a2 2 0 1 0 3.4 2l4.1-7 5.3 1.9a1.86 1.86 0 0 0 2.1-.5l2.7-2.9a1.9 1.9 0 0 0 .5-1.9l-1.3-4.8 3-.7 2.1 12.3zM90.29 177.56a1.7 1.7 0 0 1-.7-.1 2.13 2.13 0 0 1-1.2-2.6c.1-.2 2.7-8.1 2-40a359.58 359.58 0 0 0-5.7-57.4 2 2 0 0 1 1-2.2 2.13 2.13 0 0 1 2.4.4l19.1 20.3a2 2 0 0 1-2.9 2.7l-14.6-15.3a389 389 0 0 1 4.6 51.5c.8 33.5-2.1 41.2-2.2 41.5a1.83 1.83 0 0 1-1.8 1.2z" fill="#2a2f5a"/><path d="M111.89 111.66s-16.7 18-19 19.2" fill="#d5dcf1"/><path d="M92.89 132.86a2.11 2.11 0 0 1-1.8-1.1 2 2 0 0 1 .9-2.7c1.4-.9 10.5-10.2 18.5-18.8a2 2 0 0 1 2.9 2.7c-4 4.3-17.1 18.3-19.6 19.6a1.61 1.61 0 0 1-.9.3z" fill="#2a2f5a"/><path fill="none" d="M115.69 123.16l-23.3 28.1"/><path d="M92.39 153.26a2.11 2.11 0 0 1-1.3-.5 2 2 0 0 1-.3-2.8l23.3-28.1a2 2 0 0 1 2.8-.3 2 2 0 0 1 .3 2.8l-23.3 28.1a2.06 2.06 0 0 1-1.5.8zM158.49 164.86a2 2 0 0 1-2-2c0-.2.2-16.6-3-28.5-2.8-10.5 1.6-23.5 3.6-29.1a9.73 9.73 0 0 0 .6-2 2 2 0 0 1 2-1.8 2 2 0 0 1 2 2 10.81 10.81 0 0 1-.9 3.1c-1.8 5.2-6 17.4-3.5 26.8 3.3 12.5 3.2 28.9 3.1 29.6a1.9 1.9 0 0 1-1.9 1.9z" fill="#2a2f5a"/><path d="M172.29 199.36l-4.5 30.2v12.4l8 11.3 2.1.5a4.72 4.72 0 0 0 5.7-3.6 4.11 4.11 0 0 0 5.6-1.6l.4-.7a5.26 5.26 0 0 0 6.4-4.2l.1-.4a5 5 0 0 0 4.1-5v-1.2l-2.6-9.2-7-13.8 4.2-10.8c-.1 0-12.1-14.5-22.5-3.9z" fill="#cea484"/><path d="M201.99 236.46l-2.6-9.2c0-.1-.1-.2-.1-.4l-6.6-13 3.9-10a2.06 2.06 0 0 0-.3-2c-.3-.3-6.9-8.1-15-8.5-3.8-.2-7.3 1.4-10.3 4.5a1.61 1.61 0 0 0-.5 1.1l-4.5 30.2v12.7a1.92 1.92 0 0 0 .4 1.2l8 11.3a2 2 0 0 0 1.2.8l2.1.5a7.72 7.72 0 0 0 1.5.2 7.49 7.49 0 0 0 3.6-1 7.68 7.68 0 0 0 2.2-2.2 5.33 5.33 0 0 0 2.5-.2 6.12 6.12 0 0 0 3.4-2.5 7.3 7.3 0 0 0 4.1-1.2 7.52 7.52 0 0 0 3-4 7.09 7.09 0 0 0 4.4-6.5v-1.2c-.4-.2-.4-.4-.4-.6zm-4 1.8a2.84 2.84 0 0 1-1.1 2.3c-.3-2.6-.6-5.5-.6-5.7a2 2 0 1 0-3.9.5s.5 4.4.8 7.1a2 2 0 0 0 .6 1.3 3.15 3.15 0 0 1-1.3 1.7 3.36 3.36 0 0 1-1.4.5c-.5-1.9-1.4-5.5-2.8-9.8a2 2 0 0 0-3.8 1.2c1.5 4.7 2.5 8.6 2.9 10.2a2.34 2.34 0 0 1-1.2 1 2.05 2.05 0 0 1-1.1 0l-4.7-10.5a1.9 1.9 0 0 0-2.6-1 1.93 1.93 0 0 0-1 2.6l4.7 10.6a2.94 2.94 0 0 1-1 1.2 2.58 2.58 0 0 1-2.1.3l-1.3-.3-7.2-10.2v-11.6l4.4-29.4a9.2 9.2 0 0 1 6.9-2.8c5 .2 9.5 4.4 11.3 6.2l-3.8 9.7a1.81 1.81 0 0 0 .1 1.6l6.9 13.6 2.5 8.7v1zM101.39 278.16a2 2 0 0 1-2-1.7 2.1 2.1 0 0 1 1.7-2.3c23.8-3.2 29.1-17.7 30.1-21.7l-18.7-18.6-17.4-8.4a2.41 2.41 0 0 1-.8-.6l-6.5-9.1a17.92 17.92 0 0 0-13-7.5l-10.5-1a2.01 2.01 0 1 1 .4-4l10.5 1a21.78 21.78 0 0 1 15.8 9.1l6.2 8.7 17.3 8.3a1 1 0 0 1 .5.4l19.7 19.6a1.83 1.83 0 0 1 .6 1.7c-.1.9-3.7 21.9-33.7 26 0 .1-.1.1-.2.1zM111.89 180.76a.9.9 0 0 1-.5-.1 2.09 2.09 0 0 1-1.5-2.4l11-43.9a2.001 2.001 0 0 1 3.9.9l-11 43.9a1.92 1.92 0 0 1-1.9 1.6zM138.99 179.56a2 2 0 0 1-2-1.9c0-.2-.6-17.1-1.5-33.6a2.002 2.002 0 1 1 4-.2c.9 16.5 1.5 33.5 1.5 33.7a1.89 1.89 0 0 1-2 2z" fill="#2a2f5a"/><path d="M128.29 222.66a11.83 11.83 0 0 1-8.9-3.9c-6.9-7.7-21.2-11.5-21.3-11.5a2 2 0 0 1 1-3.8c.6.2 15.6 4.2 23.3 12.7a8 8 0 0 0 11.1.7l.6-.5c5.4-4.6 16.7-14.3 37.1-10.7a2 2 0 1 1-.7 3.9c-18.6-3.2-28.5 5.3-33.8 9.8l-.6.5a12.26 12.26 0 0 1-7.8 2.8zM112.79 244.26a1.7 1.7 0 0 1-.7-.1c-.2-.1-24.7-9.2-44.3-11.7-17.6-2.2-29.3-7.2-34.5-14.8a14.51 14.51 0 0 1-2.7-10.6 2.001 2.001 0 0 1 3.9.9 10.36 10.36 0 0 0 2.1 7.5c3.2 4.5 11.3 10.4 31.6 13 20.1 2.5 44.2 11.5 45.2 11.9a2 2 0 0 1 1.2 2.6 1.92 1.92 0 0 1-1.8 1.3zM164.59 175.16a2 2 0 0 1-1.1-.3 2.07 2.07 0 0 1-.6-2.8c.1-.2 10.6-15.4 35.4-3.2a2.012 2.012 0 1 1-1.8 3.6c-21.7-10.7-30.2 1.7-30.3 1.9a1.94 1.94 0 0 1-1.6.8z" fill="#2a2f5a"/><path d="M95.99 225.76a1.93 1.93 0 0 1-1.9-1.5 2 2 0 0 1 1.4-2.5c.8-.2 19.6-5.5 32.3-3.2a2 2 0 0 1 1.6 2.3 2 2 0 0 1-2.3 1.6c-11.8-2.2-30.2 3-30.4 3.1a1.08 1.08 0 0 1-.7.2zM124.09 231.76a2.05 2.05 0 0 1-1.9-1.3 2 2 0 0 1 1.1-2.6c1.3-.5 32.5-12.6 46.3-11.9a2.002 2.002 0 1 1-.2 4c-12.9-.6-44.3 11.5-44.6 11.6a1.08 1.08 0 0 1-.7.2zM72.59 179.56a2.28 2.28 0 0 1-1.1-.3 2.05 2.05 0 0 1-.6-2.8 47.64 47.64 0 0 0 6.9-30.6l-6-51a2.01 2.01 0 1 1 4-.4l6 51a51.18 51.18 0 0 1-7.5 33.2 2 2 0 0 1-1.7.9z" fill="#2a2f5a"/><path fill="none" d="M183.89 274.46l9.1 1.7M180.99 279.86l6.9 2.3"/><path d="M196.59 265.76l.5-4.7a2 2 0 0 0-1.4-2.1c-2.5-.8-7.1-2-9-1.4-1 .3-8.9.9-16 1.3-5.8-.8-20.3-2.8-23-3.4l-15.2-7.1a2 2 0 0 0-2 .2 1.92 1.92 0 0 0-.8 1.9c1.3 10.8-1.1 13.6-2.6 14.3l-11.1 5.1a2 2 0 0 0-1.1 2.2 1.91 1.91 0 0 0 1.8 1.6l26.6 2 13.3 6.9a1.42 1.42 0 0 0 .6.2l16.9 3.1a31.9 31.9 0 0 0 7.4 1c3.2 0 6.5-.7 8.1-3.4a.1.1 0 0 1 .1-.1c0-.1.1-.1.1-.2a12.25 12.25 0 0 1 1.7-1.9 30.92 30.92 0 0 0 3.3-3.9.1.1 0 0 1 .1-.1 10.83 10.83 0 0 0 1.2-4.3v-.3a1.93 1.93 0 0 0 .7-1.8c-.1-.8-.1-1.7-3.1-2.9l1.5-.3a2.19 2.19 0 0 0 1.4-1.9zm-21.6 16.1h-.2l-16.7-3-13.4-6.9a1.88 1.88 0 0 0-.8-.2l-19.2-1.4 4.1-1.9c5.2-2.4 5.5-9.9 5.2-14.9l12.2 5.7c.1 0 .2.1.3.1 2.5.7 21.8 3.3 23.9 3.6h.4c3.5-.2 15.3-1 17-1.5a15.29 15.29 0 0 1 4.5.8.9.9 0 0 1 .7 1 2.38 2.38 0 0 1-2.3 2.2l-5.9.2a1.94 1.94 0 0 0-1.6 1.4 2 2 0 0 0 1.5 2.5c2.1.5 4.5 1.1 6.3 1.7a1.63 1.63 0 0 1 1.1 1.7 1 1 0 0 1-1.1.8l-6.3-1.2a2.15 2.15 0 0 0-2.4 1.2 2.08 2.08 0 0 0 1.5 2.7l4.9.9a.55.55 0 0 1 .3.9 2.65 2.65 0 0 0-.5.6 2.44 2.44 0 0 1-2.3.6l-4-1.4a2.18 2.18 0 0 0-2.5.8c-.7 1.1.5 1.9 1.7 2.2 3.4 1 2.2 1.7 2.2 1.7 0 1.6-6.2-.2-8.6-.9z" fill="#2a2f5a"/><path d="M215.69 218.66c-7.3-2.3-24.9-.8-22.7-1.3" fill="#47519f"/><path d="M215.69 220.66a1.27 1.27 0 0 1-.6-.1c-4.7-1.5-14.6-1.3-19.3-1.2-3.6.1-4.8.1-5-1.8a2.09 2.09 0 0 1 1.7-2.3 1.67 1.67 0 0 1 1.2.1h2c5.3-.1 15.2-.3 20.6 1.3a1.94 1.94 0 0 1 1.3 2.5 1.83 1.83 0 0 1-1.9 1.5zM62.49 133.16l-1.1-5.3c-.1-.5-.2-.9-.3-1.4l-1-5-2.3-16.1a2.73 2.73 0 0 0-.6-1.2l-4.4-4.2a2.62 2.62 0 0 0-1.3-.6h-.1v4.8l2.5 2.4a2.2 2.2 0 0 0-.1.8l.3 3.2c.8 9.5-1.7 21.2-11.1 25.9-1.6-.1-8.7-1.2-13.4-11.5-2.3-5.1-4.3-11.7-3.8-16.2l-.5-.4 2.1-6.1v-.1h.1l1.4-3.9-2.2-.1a2 2 0 0 0-1.5.6 56.35 56.35 0 0 1-8.1 2.7 2 2 0 0 0-1.4 1.5l-3.6 16.6-6 17.6c0 .1-.1.3-.1.4l-1.7 14.7a42 42 0 0 0 5.8 26.6l5.2 8.6a17.18 17.18 0 0 0 14.3 10.2 9.15 9.15 0 0 0 1.6.1 17 17 0 0 0 14.2-7.5l2.1-2.2c29.2-22.3 16.4-51.7 15-54.9zm-43.3-28.2c1.7-.5 3-.9 4.1-1.3-4.2 6.8.9 19.2 2.6 23 3.7 8.2 9 11.6 12.7 12.9a16.4 16.4 0 0 0 4.4.9 3.09 3.09 0 0 0 1.1-.2c6.6-3.1 10.5-8.9 12.4-15.3l.7 3.6c1.6 9.5-4.6 19.5-4.7 19.6a.37.37 0 0 0-.1.3c-3.6 8.2-10.1 12.1-14.9 12.3-1.7 0-6.3-5.1-8.1-7.1-.6-.7-1.1-1.3-1.6-1.8-5.5-5.8-7.6-17.4-8.1-20.8l-2.1-14.3a2.73 2.73 0 0 0-.7-1.3zm25.5 79.9c-.1.1-.2.2-.3.2l-2.3 2.5c-.1.1-.1.2-.2.2a13.34 13.34 0 0 1-12.3 5.8 13.12 13.12 0 0 1-11-7.9.35.35 0 0 0-.1-.2l-5.3-8.7a38.31 38.31 0 0 1-5.2-24.1l1.7-14.5 4.9-14.2 1.2 7.8c.7 4.8 3 16.5 9.1 23 .4.5 1 1 1.5 1.7 4.1 4.6 7.8 8.4 11.1 8.4h.2c6-.3 14-4.9 18.4-14.6a43.9 43.9 0 0 0 4.5-10.6 42 42 0 0 1 1.9 12.1c.2 13-5.8 24.2-17.8 33.1z" fill="#2a2f5a"/><path d="M95.09 25.96c.1-.2 0-9.5 5.2-15.7 0-.1.1-.1.1-.2a23.15 23.15 0 0 1 16.9-7.9l3.1-.1a29 29 0 0 1 26.5 11.9l1.2 1.8a21.49 21.49 0 0 1 .2 23.7l-2 8.7.1.1a10.89 10.89 0 0 1 0 10.9c-.3.4-.6.9-.9 1.3l-6.3 11.4-5.9 8.6-11.7 1.4-13.4-2.1c-4.5-4.2-9-12-9-12.1l-2.5-16.8h-.3a9.56 9.56 0 0 1-7.6-7.1l-.5-1.7a26.56 26.56 0 0 1-.7-9.7l.2-1.7a5.55 5.55 0 0 1 5.6-4.9z" fill="#cea484"/><path d="M124.29 38.46a2.66 2.66 0 0 1-1.2-.3l-2.1-1.1a10.4 10.4 0 0 0-5.8.1 10.63 10.63 0 0 1-9.8-2 2.491 2.491 0 0 1 3.1-3.9 6 6 0 0 0 5.3 1.1 16.43 16.43 0 0 1 8.8 0c.2 0 .3.1.5.2l2.3 1.2a2.57 2.57 0 0 1 1.1 3.4 2.48 2.48 0 0 1-2.2 1.3zM148.99 43.86a10.42 10.42 0 0 1-6.5-2.2 11.7 11.7 0 0 0-5.4-2.2l-2.3.3a2.52 2.52 0 0 1-.6-5l2.6-.3h.5a16.29 16.29 0 0 1 8.2 3.2 6.17 6.17 0 0 0 5.3.9 2.5 2.5 0 1 1 1.4 4.8 11.27 11.27 0 0 1-3.2.5zM109.49 58.66a1.79 1.79 0 0 1-1.3-.5c-4.7-3.9-5.3-7.5-5.4-7.9a2 2 0 1 1 3.9-.5c0 .2.5 2.5 3.9 5.3a2 2 0 0 1 .3 2.8 1.6 1.6 0 0 1-1.4.8z" fill="#2a2f5a"/><path d="M149.69 14.66l-1.2-1.8a31 31 0 0 0-28.3-12.7l-3 .1a25.75 25.75 0 0 0-18.4 8.7l-.1.1c-3.1 3.6-5 8.6-5.5 14.7a7.57 7.57 0 0 0-7.6 6.6l-.2 1.7a28.76 28.76 0 0 0 .8 10.5l.5 1.7a11.57 11.57 0 0 0 8.1 8.2l2.3 15.4c.6 2.3 6.6 10.4 9.6 13.2a1.91 1.91 0 0 0 1 .5c.2-1.6.3-3.2.5-4.7a66.27 66.27 0 0 1-7.1-9.9l-2.4-16.4a2.14 2.14 0 0 0-1.6-1.7h-.3a7.77 7.77 0 0 1-6.1-5.6l-.5-1.7a24.8 24.8 0 0 1-.7-9l.2-1.7a3.54 3.54 0 0 1 3.4-3.1l1.7.2a2 2 0 0 0 2.1-1.4 2.48 2.48 0 0 0 .1-.9c.3-5.9 2-10.9 4.7-14.1l.1-.1a21.74 21.74 0 0 1 15.5-7.3l3.1-.1h.1a27.07 27.07 0 0 1 24.6 11l1.2 1.8a19.53 19.53 0 0 1 .2 21.5l-.3.6-2 8.7a2.2 2.2 0 0 0 .2 1.4l.1.1a8.85 8.85 0 0 1 0 8.9 8.65 8.65 0 0 1-.7 1c-.1.1-.2.2-.2.3l-4.6 8.4c1.5 1.8 2.8 3.3 2.8 3.3l5.3-9.6a17 17 0 0 0 1-1.4 12.71 12.71 0 0 0 .4-12.4l1.8-7.6a23.4 23.4 0 0 0-.6-25.4z" fill="#2a2f5a"/><path d="M114.19 26.86a.75.75 0 0 1-.5-.1 2 2 0 0 1-1.4-2.5c.8-3 1.6-8.3-2.9-10.6a2.012 2.012 0 0 1 1.8-3.6c5.1 2.6 6.9 8.3 5 15.2a2.11 2.11 0 0 1-2 1.6zM130.79 64.06a2.05 2.05 0 0 1-1.9-1.3 2.08 2.08 0 0 1 1.2-2.6c1.1-.4 3.5-1.7 3.9-3a2.71 2.71 0 0 0-.9-2.1c-3.4-3.8-4.2-9.2-4.3-9.4a2.022 2.022 0 1 1 4-.6 16.46 16.46 0 0 0 3.3 7.4c2.1 2.3 2.2 4.4 1.8 5.8-1 3.8-5.9 5.6-6.4 5.8zM95.99 38.16h-.3a1.49 1.49 0 0 1-1.1-1.8 3.54 3.54 0 0 0 .1-.6c1.4-5.4 1-7.5.1-7.7s-1.6-.4-1.4-1.2a1.4 1.4 0 0 1 1.8-1c4.8 1.4 3 8.4 2.3 10.7a1.09 1.09 0 0 0-.1.5 1.41 1.41 0 0 1-1.4 1.1z" fill="#2a2f5a"/><path d="M93.89 44.66a1.61 1.61 0 0 1-1.1-.5 7.85 7.85 0 0 1-.7-10.6 1.492 1.492 0 1 1 2.3 1.9c-.3.3-2.5 3.2.6 6.6a1.45 1.45 0 0 1-.1 2.1 1.22 1.22 0 0 1-1 .5zM142.29 47.86a1.5 1.5 0 0 1-1.4-1c-.4-1.1-.9-1.7-1.5-1.9a4 4 0 0 0-2.7.7 1.5 1.5 0 1 1-1.8-2.4c.3-.2 2.8-2 5.4-1.2 1.6.5 2.7 1.8 3.5 3.8a1.45 1.45 0 0 1-.9 1.9 1.76 1.76 0 0 1-.6.1zM121.59 44.66a1.21 1.21 0 0 1-1.2-.7 3.4 3.4 0 0 0-2.4-1.8 4 4 0 0 0-2.5.6 1.5 1.5 0 1 1-1.8-2.4 6.18 6.18 0 0 1 4.8-1.1 6.64 6.64 0 0 1 4.4 3.1 1.44 1.44 0 0 1-1.3 2.3zM123.39 60.16a2.39 2.39 0 0 1-1.4-.5 4.23 4.23 0 0 1-1.5-3.6c.3-2.5 2.8-4.2 3.3-4.5a1.86 1.86 0 0 1 2.7.7 1.88 1.88 0 0 1-.7 2.7 3.56 3.56 0 0 0-1.4 1.4l.3.3a1.93 1.93 0 0 1 .1 2.8 1.91 1.91 0 0 1-1.4.7z" fill="#2a2f5a"/><path d="M121.39 57.86l-4.3 2.1c-.2.1-3.6 3.7-3.8 3.9l-4.5 6.4a3.55 3.55 0 0 0-.4.9l-2.2 23.9a1.7 1.7 0 0 0 .1.7l11.6 33.7a1.6 1.6 0 0 0 .7.9c1.8 1.2 7.8 5.3 8.6 6.6s10.6-24.6 11.5-26.9c0-.1.1-.2.1-.4l3.4-22.2a2.77 2.77 0 0 0-.1-.9l.1-10.7a11.42 11.42 0 0 0-2.8-7.5l-.8-1-3.6-4.1a1.76 1.76 0 0 0-2.1-1.5 8.33 8.33 0 0 1-7.4-1.9l-2.1-1.9a2.32 2.32 0 0 0-2-.1z" fill="#fff"/><path d="M126.99 67.16a14.58 14.58 0 0 0 .7 1.9 6.35 6.35 0 0 1-3.8.2h.1a32.12 32.12 0 0 0 3-2.1zm-16.6 4.2l4.5-6.3c.4-.5 2.7-2.8 3.3-3.5l3.9-1.9 2 1.8a18.82 18.82 0 0 0 2.3 1.6c-.6 1.6-2.3 2.6-4 3.6a18.9 18.9 0 0 0-3.1 2.2l-5.6 4.4a1.7 1.7 0 0 0-.6 1l-2.5 16.5v.6c0 .2 3.9 13.9 4.7 24.8l-7.2-20.9zm16.6 62.6a84.61 84.61 0 0 0-7.1-5.1l-1.7-4.9a4.87 4.87 0 0 0 .3-.7c1.2-10.8-3.9-29.7-4.7-32.5l2.3-15.5 5.1-4a7.9 7.9 0 0 0 4.4 1.2 10 10 0 0 0 3.2-.6 1.79 1.79 0 0 0 .7-.5 1.38 1.38 0 0 0 .4.3c1.8 1.5 2.5 12.5 2 21.8v.2c.9 7.7 1.8 19.5 1.1 26-2.5 6.2-4.7 11.6-6 14.3zm9.9-24.6c-.2.6-.5 1.3-.7 1.9-.1-7.4-1-15.2-1.3-17.8.2-5 .6-21-3.1-24.1-1.7-1.4-2.1-3.8-2.1-5.4a9.72 9.72 0 0 0 3.4-.1 2 2 0 0 0 .4.8l4.5 5.1a9.26 9.26 0 0 1 2.3 6.1l-.1 10.7a1.7 1.7 0 0 0 .1.7zm7.3-23l.1-10.3a13 13 0 0 0-3.3-8.8l-4.1-4.7a3.31 3.31 0 0 0-1.4-1.9 4 4 0 0 0-3-.6 6.35 6.35 0 0 1-5.6-1.5l-2.1-1.9a3.85 3.85 0 0 0-4.1-.6l-4.3 2.1a37.93 37.93 0 0 0-4.5 4.5.1.1 0 0 1-.1.1l-4.5 6.3a4.55 4.55 0 0 0-.8 1.9l-2.2 23.9a4.4 4.4 0 0 0 .2 1.6l11.6 33.7a4 4 0 0 0 1.5 1.9c4.6 3.1 7.5 5.3 7.9 5.9a2.11 2.11 0 0 0 1.8 1.1h.2c1.5-.1 2.6-.2 13.2-28.3a1.85 1.85 0 0 0 .2-.7l3.4-22.2a7.56 7.56 0 0 0-.1-1.5zM143.79 273.66l-17.3-1.3-25.7 1.8-21.7-4.1h-.4c-.4 0-42.6-.2-50.6-1.2s-14.1-4.4-18.1-10.1c-9-13-4.9-34.2-4.3-37l3.8-6.1c5.9-9.6 18.9-15.9 28.2-18.5l26.4-7.2c50.2.7 54.4.2 55.3-.3l-.4.2c1.6-.5 22.1-3.7 41.3-3l-.5-4c-6.5-.2-12.9 0-18.3.3-8.8.6-23.2 2.3-24.5 3.3a2.77 2.77 0 0 1 .7-.4c-2.4.4-34.3.2-53.9-.1a1.27 1.27 0 0 0-.6.1l-22.7 6.2a15.86 15.86 0 0 1-10.8 3.4c-9 3.5-18.6 9.6-23.8 17.9l-4 6.4a1.42 1.42 0 0 0-.2.6c-.2 1-5.9 25.1 4.8 40.5 4.7 6.7 11.7 10.7 20.9 11.8 8 1 47.4 1.2 50.9 1.2l21.8 4.2h.5l45.6-3.2zM224.69 208.86a.78.78 0 0 0-.4-.4l-14.6-11.4c-.1-.1-.2-.1-.3-.2a4.2 4.2 0 0 0-.5-.2l.8 5.5 11.9 9.3c7.4 10.6 5.8 28.6 4.2 38.4-.8 4.5-16.1 12.9-27 17.5l-11.3.8c3.3.9 8.6 2.4 6.8 3.1a1.07 1.07 0 0 0-.3.5l5.4-.4a1.42 1.42 0 0 0 .6-.2c4.7-2 28.3-12.3 29.7-20.7 2.1-12.8 3-30.4-5-41.6z" fill="#2a2f5a"/><path d="M68.49 173.96l-3.5 10.9-.4 3.1 33 5.8a158.16 158.16 0 0 0 44 .6c9.6-1.2 19.4-3.6 21.4-4l-4.2-15z" fill="#1a1f32"/><path d="M98.69 64.36h-1.7c-.2 0-.3.1-.5.1l-5.7 1.5a1.89 1.89 0 0 0-1.3 1l-4.2 8.2-15.6 1.2a3.18 3.18 0 0 0-.9.3l-17.9 10.7a5.87 5.87 0 0 1 .4 2.3v7l1.7-6 17.5-10.3 16.3-1.3a2.09 2.09 0 0 0 1.6-1.1l4.3-8.4 4.6-1.2h2.6a5.91 5.91 0 0 1-1.2-4zM212.39 207.06l-4.6-31.3 4-8.6a1.86 1.86 0 0 0-.1-1.9l-23.4-37.8-1.3-10.2a31.83 31.83 0 0 0-10.8-20l-17.5-15.1a3 3 0 0 0-.8-.4l-13.2-3.7-2.1-1.2c.2.3.4.5.6.8a5.72 5.72 0 0 1 .9 4.4l12.3 3.4 17.2 14.8a27.89 27.89 0 0 1 9.4 17.5l1.4 10.7c.1.3.1.6.3.8l23.1 37.3-3.8 8.2a1.39 1.39 0 0 0-.2 1.1l4.3 28.9-12-3.3c-2.8-4.5-11.6-8.8-15.7-8.1l-13 2.9-4.9-6.6-1.9-14.7a1.69 1.69 0 0 0-.9-1.4 2 2 0 0 0-1.7-.2l-1.2.4a14 14 0 0 1 0 2.9c0 .5.1.9.1 1.4l.2-.1 1.7 12.7a3.55 3.55 0 0 0 .4.9l6 8.1a1.76 1.76 0 0 0 2 .8l14.2-3.2c2.2-.4 10.1 3.5 11.5 6.6a2.07 2.07 0 0 0 1.3 1.1l15.8 4.3a.75.75 0 0 0 .5.1 1.31 1.31 0 0 0 1.2-.7 1.42 1.42 0 0 0 .7-1.6zM59.19 170.36l9.3 6.6a2.26 2.26 0 0 1 2.9-2.7l-10.2-7.3a6.21 6.21 0 0 1-2 3.4z" fill="#2a2f5a"/><path d="M158.69 177.36a2 2 0 0 1-2-1.7c-3-22.3 9.1-34.7 9.6-35.2a2 2 0 1 1 2.8 2.8 32.52 32.52 0 0 0-5.3 8.3 43.33 43.33 0 0 0-3.2 23.6 1.94 1.94 0 0 1-1.7 2.2z" fill="#2a2f5a"/></svg>
