<svg fill="none" xmlns="http://www.w3.org/2000/svg" viewBox="0 0 134 134"><circle cx="66.5" cy="66.5" r="65.5" fill="#fff"/><path d="M67 0C30.031 0 0 30.031 0 67c0 35.261 27.328 64.19 61.93 66.789l.205.018A68.09 68.09 0 0 0 67 134a68.09 68.09 0 0 0 5.07-.211C106.671 131.19 134 102.261 134 67c0-36.969-30.031-67-67-67Zm0 5.826c33.82 0 61.174 27.354 61.174 61.174 0 16.697-6.686 31.8-17.507 42.831-4.629-3.371-10.35-5.382-15.475-7.18-6.071-2.127-11.814-4.143-13.405-7.647-.25-2.992-.228-5.328-.205-8.011l.006-1.138c2.587-2.461 5.84-7.657 6.953-12.454 1.922-1.026 4.273-3.484 4.978-9.37.352-2.923-.48-5.186-1.644-6.703 1.573-5.404 4.703-19.084-.78-27.913-2.319-3.732-5.818-6.086-10.417-7.015-2.584-3.199-7.46-4.944-13.98-4.944-9.907.183-17.17 3.218-21.574 9.017-5.194 6.846-6.176 17.19-2.925 30.758-1.203 1.518-2.07 3.813-1.712 6.793.708 5.888 3.05 8.346 4.972 9.371 1.113 4.804 4.363 9.999 6.953 12.46l.006 1.11c.023 2.694.045 5.036-.205 8.039-1.596 3.513-7.367 5.551-13.467 7.704-5.095 1.799-10.782 3.813-15.402 7.14C12.515 98.815 5.826 83.704 5.826 67 5.826 33.18 33.18 5.826 67 5.826Z" fill="#5217F1"/></svg>