<svg xmlns="http://www.w3.org/2000/svg" width="160" height="65">
  <path d="M157.94 49.37c-1.24.17-2.53.28-3.76.38v.06c-2.42 17.36-26.19 20.23-26.78 6.6-.27-6.17 11.6-7.95 23.4-9.1.43-11.08-15.9 5.68-21.61-4.6-5.02-9.02 14.63-17.93 16.73-16.1 6.44 5.64 3.4 6.62-1.38 8.34-9.5 3.41-5.8 4.1-4.51 3.73 7.57-2.26 14.36-1.04 14.31 8.31 1.29-.1 2.52-.16 3.76-.27 2.3-.21 2.46 2.44-.16 2.65zm-7.52.76c-9.12 1.03-17.01 2.44-16.15 5.36 1.71 5.57 13.58 6.81 16.15-5.36zm-32.74-5.21c-.68-.04-.7-6.04.11-11.69 1-6.95 11.93-3.36 9.1-1.9-2.98 1.51-4.44 8.71-6.27 12.08-.64 1.16-2.6 1.53-2.94 1.5zM42.1 21c2.38 4.87-4.93 8.17-8.29 4.52-1.4-1.55-.75-4.56 2.64-6.19 1.7-.84 4.07-1.6 5.65 1.67zm14.96-2.14c2.59 5.3-5.38 8.9-9.03 4.92-1.52-1.7-.82-4.96 2.87-6.74 1.85-.91 4.44-1.73 6.16 1.82zm-28.18 42.8c-7.92 5.34-14.22 4.17-12.2-10.84 1.44-10.9-.96-11.52-3.13-9.44-2.85 2.7-4.63 9.72-4.69 16.4a50.98 50.98 0 0 0 1 4.78c.34 1.63-4.9 3.32-7.97 1.01C.84 62.8 0 54.88 0 44.13c0-8.82 1.17-14.9 2.23-15.17 8.03-2.2 9.31 1.34 7.58 7.98a47.64 47.64 0 0 0-1.4 7.92c1.68-4.66 4.08-8.48 6.81-10.17 7.42-4.67 13.6-2.48 12.43 6.8-2 16.58-2.17 18.83-.38 17.53 2.23-1.57 3.68 1.24 1.61 2.65zm26.1-2.07c-2.17 3.48-7.8 5.17-13.21 4.55-7.75-.84-12.55-7.75-10.7-18.1 2-11.18 18.06-18.32 23.19-10.34 3.73 5.8-2.18 16.02-11.6 19.79l-.5.16c1.95 5.18 6.58 7.48 11.04 2.36 2.12-2.36 3.62-1.34 1.78 1.58zm-13.6-7.42c5.85-4.16 7.8-13.32 6.19-15.9-1.73-2.7-5.08 1.51-6.25 11.74-.11 1.46-.11 2.87.06 4.16zM83.09 45c-1.6 2.5-3.9 4.39-5.97 5.06-2.4.73-5.18.06-5.18-2.7 0-1 .9-3.37 3.62-4.72-.16-1.9-1.39-2.42-2.28-1.68-3.35 2.58-7.42 12.25-6.36 19.22.06.16.06.33.06.5.16.62.33 1.24.55 1.86.56 1.57-4.9 3.31-7.97.95-1.06-.79-1.61-6.97-1.61-17.7 0-8.83 1.95-16.64 3-16.92 6.42-1.74 10.15 1.3 8.15 7.25a64.94 64.94 0 0 0-2.85 10.4c2.46-6.69 6.53-12.87 9.82-14.5 5.85-2.92 10.09.95 8.86 7.81-.05.11-.11.4-.11.45-.06.56-.57 2.3-.39 1.74-.52 1.65-.9 2.28-1.34 2.98z"/>
  <path d="M113.2 26.16a86.99 86.99 0 0 0-1.1 7.53c-1.07 10.06-.62 19 .6 22.99.73 2.13 3.46 4.94 6.08 2.02 2.85-3.2 5.97-1.35 2.18 2.42-2.34 2.3-6.7 3.88-11.04 3.42-3.12-.39-5.02-2.41-6.14-5.5a8.7 8.7 0 0 1-1.56 2.3c-2.11 2.2-4.68 3.43-7.97 3.1-6.64-.74-10.54-7.93-8.7-18.16 1.95-10.79 11.32-14.72 16.73-11.86l.33-4.1c.06-.28.06-.56.11-.84a96.96 96.96 0 0 1-4.96.95c-23.97 4-15.72-15.57-9.87-20.68 6.64-5.73 7.36-1.85 5.3-.56-3.68 2.36-5.3 15.9 5.24 15.9 1.73 0 3.35-.1 4.96-.28C106.7 6.5 116.67-2.39 124.75.53c8.98 3.26 8.03 17.54-11.54 25.63zm-10.92 24.4c-.23-3.55-.23-7.54-.17-11.64 0-.5.06-1.01.06-1.46-3.35-1.52-6.64 3.65-7.48 10.79-.94 8.37 2.8 12.81 4.91 10.79 1.62-1.63 2.46-6.8 2.68-8.49zm24.08-43.17c-1.78-2.64-8.3.56-12.1 14.33 9.54-4.55 13.33-12.42 12.1-14.33z"/>
</svg>
